<svg width="280" height="137" viewBox="0 0 280 137" fill="none" xmlns="http://www.w3.org/2000/svg">
<path d="M17.1325 101.621L15.027 100.773V98.3945L21.4665 98.2578H24.1325C26.9671 98.2578 29.1592 99.0827 30.7087 100.732C32.2582 102.373 33.0329 104.752 33.0329 107.869C33.0329 109.938 32.6501 111.738 31.8845 113.27C31.1188 114.801 30.0342 115.972 28.6305 116.783C27.236 117.594 25.5954 118 23.7087 118H15.027V115.621L17.1325 114.773V101.621ZM23.7907 114.637C25.249 114.637 26.3701 114.131 27.154 113.119C27.9378 112.098 28.3298 110.394 28.3298 108.006C28.3298 105.727 27.9652 104.096 27.236 103.111C26.5068 102.118 25.4222 101.621 23.9821 101.621H21.4665V114.637H23.7907ZM42.0268 111.369C42.0997 112.49 42.437 113.365 43.0385 113.994C43.6492 114.614 44.4422 114.924 45.4174 114.924C46.1101 114.924 46.8028 114.828 47.4955 114.637C48.1974 114.436 48.7761 114.236 49.2319 114.035C49.6967 113.826 49.9929 113.68 50.1205 113.598L51.3237 115.922C51.3237 115.958 50.9955 116.191 50.3393 116.619C49.6922 117.038 48.8946 117.421 47.9467 117.768C47.0079 118.105 46.0053 118.273 44.9389 118.273C42.5691 118.273 40.7644 117.617 39.5248 116.305C38.2853 114.992 37.6655 113.133 37.6655 110.727C37.6655 109.104 37.9617 107.682 38.5541 106.461C39.1557 105.23 40.017 104.283 41.1381 103.617C42.2592 102.943 43.5899 102.605 45.1303 102.605C47.1811 102.605 48.7534 103.193 49.8471 104.369C50.9409 105.545 51.4877 107.149 51.4877 109.182C51.4877 109.628 51.4649 110.061 51.4194 110.48C51.3738 110.9 51.3419 111.164 51.3237 111.273L42.0268 111.369ZM44.8569 105.955C44.0912 105.955 43.4669 106.215 42.9838 106.734C42.5008 107.245 42.2 107.919 42.0815 108.758H47.1537C47.1537 107.919 46.9669 107.245 46.5932 106.734C46.2195 106.215 45.6407 105.955 44.8569 105.955ZM64.0227 103.016L71.3645 102.879V105.258L69.7648 105.627L65.2531 118H60.632L56.216 105.709L54.8625 105.258V103.016L62.2043 102.879V105.258L60.632 105.545L63.175 113.803L65.6496 105.627L64.0227 105.258V103.016ZM83.8152 115.621L85.9206 114.773V101.621L83.8152 100.773V98.3945L90.2546 98.2578H98.1023V103.576H95.4909L94.7937 101.621H90.2546V106.516H96.0515V109.605H90.2546V114.773L92.8386 115.621V118H83.8152V115.621ZM109.584 102.605C111.836 102.605 113.572 103.262 114.793 104.574C116.024 105.887 116.639 107.751 116.639 110.166C116.639 111.825 116.329 113.265 115.709 114.486C115.099 115.708 114.233 116.646 113.112 117.303C111.991 117.95 110.674 118.273 109.161 118.273C104.403 118.273 102.024 115.708 102.024 110.576C102.024 108.917 102.334 107.491 102.954 106.297C103.582 105.103 104.467 104.191 105.606 103.562C106.745 102.924 108.071 102.605 109.584 102.605ZM109.434 105.955C108.377 105.955 107.597 106.297 107.096 106.98C106.604 107.664 106.358 108.817 106.358 110.439C106.358 111.989 106.59 113.124 107.055 113.844C107.529 114.564 108.277 114.924 109.297 114.924C110.327 114.924 111.084 114.564 111.567 113.844C112.05 113.124 112.291 111.943 112.291 110.303C112.291 108.844 112.064 107.755 111.608 107.035C111.152 106.315 110.428 105.955 109.434 105.955ZM123.664 114.924C123.664 114.942 123.91 114.992 124.403 115.074C124.895 115.156 125.433 115.197 126.016 115.197C127.547 115.197 128.308 114.742 128.299 113.83C128.299 113.42 128.085 113.087 127.656 112.832C127.228 112.577 126.549 112.294 125.619 111.984C124.626 111.647 123.81 111.319 123.172 111C122.543 110.681 121.996 110.23 121.531 109.646C121.067 109.054 120.834 108.302 120.834 107.391C120.834 105.75 121.381 104.542 122.475 103.768C123.578 102.993 124.954 102.605 126.604 102.605C127.351 102.605 128.108 102.665 128.873 102.783C129.648 102.902 130.295 103.034 130.815 103.18C131.343 103.316 131.671 103.403 131.799 103.439L131.69 107.637H129.311L128.901 105.955C128.901 105.937 128.691 105.887 128.272 105.805C127.862 105.723 127.424 105.682 126.959 105.682C126.339 105.682 125.861 105.805 125.524 106.051C125.196 106.288 125.031 106.639 125.031 107.104C125.031 107.514 125.246 107.842 125.674 108.088C126.102 108.334 126.781 108.594 127.711 108.867C128.705 109.186 129.52 109.492 130.158 109.783C130.806 110.075 131.357 110.503 131.813 111.068C132.278 111.624 132.51 112.349 132.51 113.242C132.51 114.828 131.927 116.063 130.76 116.947C129.593 117.831 128.03 118.273 126.071 118.273C125.287 118.273 124.512 118.228 123.746 118.137C122.981 118.046 122.347 117.954 121.846 117.863C121.354 117.772 121.044 117.704 120.916 117.658V113.105H123.432L123.664 114.924ZM142.898 118.273C141.385 118.273 140.314 117.804 139.686 116.865C139.066 115.926 138.756 114.577 138.756 112.818V106.379H136.158V103.658L138.756 103.303V99.4336L142.953 98.6816V103.303H146.877V106.379H142.953V112.545C142.953 113.475 143.053 114.126 143.254 114.5C143.464 114.874 143.86 115.061 144.443 115.061C144.781 115.061 145.173 114.988 145.619 114.842C146.066 114.687 146.412 114.546 146.658 114.418L147.656 116.551C146.089 117.708 144.503 118.283 142.898 118.273ZM155.515 111.369C155.588 112.49 155.926 113.365 156.527 113.994C157.138 114.614 157.931 114.924 158.906 114.924C159.599 114.924 160.291 114.828 160.984 114.637C161.686 114.436 162.265 114.236 162.72 114.035C163.185 113.826 163.482 113.68 163.609 113.598L164.812 115.922C164.812 115.958 164.484 116.191 163.828 116.619C163.181 117.038 162.383 117.421 161.435 117.768C160.497 118.105 159.494 118.273 158.427 118.273C156.058 118.273 154.253 117.617 153.013 116.305C151.774 114.992 151.154 113.133 151.154 110.727C151.154 109.104 151.45 107.682 152.043 106.461C152.644 105.23 153.506 104.283 154.627 103.617C155.748 102.943 157.079 102.605 158.619 102.605C160.67 102.605 162.242 103.193 163.336 104.369C164.429 105.545 164.976 107.149 164.976 109.182C164.976 109.628 164.954 110.061 164.908 110.48C164.862 110.9 164.83 111.164 164.812 111.273L155.515 111.369ZM158.345 105.955C157.58 105.955 156.955 106.215 156.472 106.734C155.989 107.245 155.689 107.919 155.57 108.758H160.642C160.642 107.919 160.455 107.245 160.082 106.734C159.708 106.215 159.129 105.955 158.345 105.955ZM175.324 104.807C175.324 104.77 175.543 104.556 175.98 104.164C176.418 103.772 176.923 103.417 177.498 103.098C178.081 102.77 178.655 102.605 179.22 102.605C179.667 102.605 180.086 102.642 180.478 102.715C180.87 102.788 181.175 102.865 181.394 102.947C181.622 103.029 181.763 103.079 181.818 103.098L181.599 108.484H179.084L178.66 106.105C178.177 106.105 177.707 106.224 177.251 106.461C176.805 106.689 176.422 106.944 176.103 107.227C175.793 107.5 175.638 107.646 175.638 107.664V115.061L178.441 115.758V118H169.199V115.758L171.441 115.061V105.955L169.199 105.258V103.016L175.078 102.879L175.324 104.807ZM199.259 101.621H196.593L195.896 104.273H193.312V98.2578H209.554V104.273H206.956L206.259 101.621H203.593V114.773L206.259 115.621V118H196.593V115.621L199.259 114.773V101.621ZM217.413 111.369C217.486 112.49 217.823 113.365 218.425 113.994C219.035 114.614 219.828 114.924 220.804 114.924C221.496 114.924 222.189 114.828 222.882 114.637C223.583 114.436 224.162 114.236 224.618 114.035C225.083 113.826 225.379 113.68 225.507 113.598L226.71 115.922C226.71 115.958 226.382 116.191 225.725 116.619C225.078 117.038 224.281 117.421 223.333 117.768C222.394 118.105 221.391 118.273 220.325 118.273C217.955 118.273 216.151 117.617 214.911 116.305C213.671 114.992 213.052 113.133 213.052 110.727C213.052 109.104 213.348 107.682 213.94 106.461C214.542 105.23 215.403 104.283 216.524 103.617C217.645 102.943 218.976 102.605 220.516 102.605C222.567 102.605 224.139 103.193 225.233 104.369C226.327 105.545 226.874 107.149 226.874 109.182C226.874 109.628 226.851 110.061 226.805 110.48C226.76 110.9 226.728 111.164 226.71 111.273L217.413 111.369ZM220.243 105.955C219.477 105.955 218.853 106.215 218.37 106.734C217.887 107.245 217.586 107.919 217.468 108.758H222.54C222.54 107.919 222.353 107.245 221.979 106.734C221.606 106.215 221.027 105.955 220.243 105.955ZM244.659 115.895C244.03 116.46 243.205 116.997 242.184 117.508C241.172 118.018 239.992 118.273 238.643 118.273C236.346 118.273 234.56 117.604 233.284 116.264C232.008 114.924 231.37 113.055 231.37 110.658C231.37 108.161 232.044 106.197 233.393 104.766C234.751 103.326 236.642 102.605 239.067 102.605C239.778 102.605 240.493 102.678 241.213 102.824C241.943 102.97 242.549 103.12 243.032 103.275C243.524 103.421 243.834 103.521 243.961 103.576L243.825 108.17H241.309L240.913 106.188C240.822 106.169 240.594 106.128 240.229 106.064C239.864 105.992 239.45 105.955 238.985 105.955C237.955 105.955 237.148 106.306 236.565 107.008C235.991 107.71 235.704 108.74 235.704 110.098C235.704 111.647 235.995 112.841 236.579 113.68C237.171 114.509 238.046 114.924 239.204 114.924C239.933 114.924 240.571 114.814 241.118 114.596C241.674 114.368 242.139 114.135 242.512 113.898C242.886 113.661 243.137 113.507 243.264 113.434L244.659 115.895ZM254.336 104.506C254.91 104.023 255.608 103.585 256.428 103.193C257.257 102.801 258.128 102.605 259.039 102.605C260.461 102.605 261.55 103.048 262.307 103.932C263.063 104.816 263.442 106.051 263.442 107.637V115.061L265.397 115.758V118H257.782V115.758L259.231 115.088V108.307C259.231 106.812 258.616 106.069 257.385 106.078C256.92 106.078 256.464 106.192 256.018 106.42C255.571 106.639 255.198 106.867 254.897 107.104C254.596 107.331 254.409 107.482 254.336 107.555V115.061L255.826 115.758V118H247.897V115.758L250.139 115.061V99.3242L247.897 98.7637V96.5215L254.336 96.3027V104.506Z" fill="#6CDDC2"/>
<path d="M193.209 79.0313L223.654 48.6793L224.009 48.3253L223.654 47.9712L193.209 17.6192L201.891 8.96622L241.373 48.3253L201.891 87.6843L193.209 79.0313Z" fill="white" stroke="black"/>
<path d="M56.3963 48.3665L86.8722 78.7185L78.1904 87.3713L38.7081 48.0121L78.1592 8.65337L86.841 17.3062L56.3962 47.6582L56.0408 48.0124L56.3963 48.3665Z" fill="white" stroke="black"/>
<path d="M192.148 72.7302L191.793 73.0844L192.148 73.4384L201.538 82.7974L201.891 83.1492L202.244 82.7973L242.435 42.7323L242.79 42.3782L242.435 42.0241L202.244 1.95864L201.891 1.60678L201.538 1.9586L192.148 11.3175L191.793 11.6716L192.148 12.0258L222.593 42.3782L192.148 72.7302Z" fill="white" stroke="black"/>
<path d="M87.9335 73.1252L88.289 72.7709L87.9334 72.4168L57.4575 42.0648L87.9023 11.713L88.2575 11.3589L87.9022 11.0048L78.5119 1.64586L78.1588 1.2939L77.8058 1.64603L37.6469 41.711L37.2919 42.0651L37.647 42.4191L77.8373 82.4841L78.1903 82.836L78.5433 82.4841L87.9335 73.1252Z" fill="white" stroke="black"/>
<path d="M103.96 36.9069L100.952 35.6959V32.2975L110.152 32.1022H113.96C118.01 32.1022 121.141 33.2806 123.355 35.6373C125.568 37.9811 126.675 41.3795 126.675 45.8326C126.675 48.7884 126.128 51.36 125.034 53.5475C123.941 55.735 122.391 57.4082 120.386 58.567C118.394 59.7259 116.05 60.3053 113.355 60.3053H100.952V56.9069L103.96 55.6959V36.9069ZM113.472 55.5006C115.555 55.5006 117.157 54.778 118.277 53.3326C119.396 51.8743 119.956 49.4394 119.956 46.028C119.956 42.7727 119.435 40.442 118.394 39.0358C117.352 37.6165 115.803 36.9069 113.745 36.9069H110.152V55.5006H113.472ZM133.684 56.9069L136.691 55.6959V36.9069L133.684 35.6959V32.2975L142.883 32.1022H154.094V39.6998H150.363L149.367 36.9069H142.883V43.899H151.164V48.3131H142.883V55.6959L146.574 56.9069V60.3053H133.684V56.9069ZM166.552 36.9069H162.743L161.747 40.6959H158.055V32.1022H181.259V40.6959H177.548L176.552 36.9069H172.743V55.6959L176.552 56.9069V60.3053H162.743V56.9069L166.552 55.6959V36.9069Z" fill="#6CDDC2"/>
</svg>
