<svg width="780" height="546" viewBox="0 0 780 546" fill="none" xmlns="http://www.w3.org/2000/svg">
<g clip-path="url(#clip0_221_10)">
<rect x="389" y="14" width="230" height="211" rx="37" fill="#6CDDC2"/>
<path d="M473.751 48.3965L471.202 47.7959V46.1553L476.9 45.9941H480.65C483.609 45.9941 485.924 46.8828 487.594 48.6602C489.264 50.4277 490.099 52.9424 490.099 56.2041C490.099 58.3818 489.693 60.2861 488.883 61.917C488.082 63.5479 486.93 64.8027 485.426 65.6816C483.922 66.5606 482.184 67 480.211 67H471.202V65.1982L473.751 64.5977V48.3965ZM480.357 64.5977C482.32 64.5977 483.858 63.9141 484.972 62.5469C486.095 61.1797 486.656 59.1143 486.656 56.3506C486.656 53.6553 486.114 51.6582 485.03 50.3594C483.956 49.0508 482.447 48.3965 480.504 48.3965H476.9V64.5977H480.357ZM505.875 54.8564V57.2441H498.976V64.5977H505.875L506.476 61.5947H508.424V67H493.263V65.1982L495.812 64.5977V48.3965L493.263 47.7959V46.1553L498.976 45.9941H508.116V51.1064H506.168L505.421 48.3965H498.976V54.8564H505.875ZM510.372 46.1553L518.78 45.9941V47.7959L516.041 48.3672L520.758 62.957L525.768 48.3965L522.97 47.7959V46.1553L531.07 45.9941V47.7959L528.741 48.3965L522.076 67H519.073L512.687 48.3965L510.372 47.7959V46.1553ZM469.21 115.149V117.552H462.311V124.598L465.313 125.198V127H456.612V125.198L459.161 124.598V108.396L456.612 107.796V106.155L462.311 105.994H471.466V110.945H469.518L468.756 108.396H462.311V115.149H469.21ZM481.368 110.799C483.585 110.799 485.313 111.517 486.554 112.952C487.794 114.378 488.414 116.312 488.414 118.753C488.414 120.433 488.102 121.922 487.477 123.221C486.861 124.52 485.982 125.525 484.84 126.238C483.707 126.941 482.398 127.293 480.914 127.293C478.639 127.293 476.871 126.609 475.611 125.242C474.352 123.875 473.722 121.863 473.722 119.207C473.722 117.527 474.044 116.053 474.688 114.783C475.343 113.504 476.246 112.522 477.398 111.839C478.551 111.146 479.874 110.799 481.368 110.799ZM481.222 113.201C479.737 113.201 478.639 113.689 477.926 114.666C477.223 115.633 476.871 117.093 476.871 119.046C476.871 122.942 478.272 124.896 481.075 124.905C482.54 124.905 483.604 124.407 484.269 123.411C484.933 122.405 485.265 120.901 485.265 118.899C485.265 115.101 483.917 113.201 481.222 113.201ZM493.438 124.773C493.438 124.793 493.688 124.847 494.186 124.935C494.684 125.013 495.274 125.052 495.958 125.052C498.214 125.052 499.347 124.261 499.356 122.679C499.356 122.034 499.078 121.551 498.521 121.229C497.975 120.896 497.12 120.55 495.958 120.188C494.894 119.847 494.029 119.52 493.365 119.207C492.711 118.885 492.149 118.426 491.681 117.83C491.212 117.225 490.978 116.443 490.978 115.486C490.978 113.982 491.485 112.825 492.501 112.015C493.526 111.204 494.85 110.799 496.471 110.799C497.174 110.799 497.901 110.867 498.653 111.004C499.415 111.131 500.06 111.268 500.587 111.414C501.124 111.561 501.461 111.658 501.598 111.707L501.51 115.75H499.562L499.078 113.406C499.02 113.387 498.888 113.348 498.683 113.289C498.487 113.23 498.209 113.177 497.848 113.128C497.486 113.079 497.086 113.055 496.646 113.055C494.869 113.055 493.98 113.724 493.98 115.062C493.98 115.706 494.264 116.204 494.83 116.556C495.406 116.897 496.271 117.259 497.423 117.64C498.458 118.001 499.308 118.338 499.972 118.65C500.636 118.953 501.197 119.397 501.656 119.983C502.115 120.56 502.345 121.287 502.345 122.166C502.345 123.826 501.72 125.096 500.47 125.975C499.22 126.854 497.647 127.293 495.753 127.293C494.933 127.293 494.171 127.244 493.468 127.146C492.765 127.049 492.203 126.951 491.783 126.854C491.363 126.756 491.104 126.683 491.007 126.634V122.195H493.116L493.438 124.773ZM514.649 113.494H510.299V123.133C510.299 124.354 510.797 124.964 511.793 124.964C512.438 124.964 513.219 124.715 514.137 124.217L514.942 125.799C513.585 126.795 512.184 127.293 510.738 127.293C509.723 127.293 508.893 126.961 508.248 126.297C507.613 125.623 507.296 124.51 507.296 122.957V113.494H504.293V111.546L507.296 111.253V107.474L510.299 106.873V111.253H514.649V113.494ZM519.879 119.5C519.879 121.141 520.279 122.454 521.08 123.44C521.881 124.417 522.931 124.905 524.23 124.905C525.108 124.905 525.924 124.783 526.676 124.539C527.428 124.295 528.048 124.031 528.536 123.748C529.024 123.455 529.269 123.289 529.269 123.25L530.323 124.803C530.323 124.842 529.996 125.086 529.342 125.535C528.697 125.975 527.896 126.38 526.939 126.751C525.992 127.112 524.986 127.293 523.922 127.293C521.559 127.293 519.767 126.58 518.546 125.154C517.335 123.729 516.729 121.746 516.729 119.207C516.729 117.625 517.037 116.194 517.652 114.915C518.277 113.636 519.146 112.63 520.26 111.897C521.383 111.165 522.657 110.799 524.083 110.799C528.282 110.799 530.382 113.147 530.382 117.845C530.382 118.167 530.362 118.489 530.323 118.812C530.284 119.134 530.255 119.344 530.235 119.441L519.879 119.5ZM527.203 117.244C527.203 116.023 526.939 115.037 526.412 114.285C525.895 113.523 525.064 113.143 523.922 113.143C522.76 113.143 521.837 113.533 521.153 114.314C520.479 115.096 520.094 116.072 519.996 117.244H527.203ZM538.146 113.289C538.712 112.674 539.381 112.107 540.152 111.59C540.934 111.063 541.778 110.799 542.687 110.799C543.126 110.799 543.541 110.833 543.932 110.901C544.332 110.97 544.659 111.043 544.913 111.121C545.167 111.189 545.323 111.233 545.382 111.253L545.235 115.604H543.272L542.833 113.348C541.837 113.348 540.978 113.587 540.255 114.065C539.532 114.544 538.941 115.086 538.482 115.691V124.598L541.485 125.345V127H532.931V125.345L535.48 124.598V113.494L532.931 112.894V111.253L537.882 111.106L538.146 113.289ZM473.766 185.198L476.769 184.598V168.397H472.872L472.125 171.399H470.162V165.994H486.524V171.399H484.576L483.814 168.397H479.918V184.598L482.921 185.198V187H473.766V185.198ZM491.183 179.5C491.183 181.141 491.583 182.454 492.384 183.44C493.185 184.417 494.234 184.905 495.533 184.905C496.412 184.905 497.228 184.783 497.979 184.539C498.731 184.295 499.352 184.031 499.84 183.748C500.328 183.455 500.572 183.289 500.572 183.25L501.627 184.803C501.627 184.842 501.3 185.086 500.646 185.535C500.001 185.975 499.2 186.38 498.243 186.751C497.296 187.112 496.29 187.293 495.226 187.293C492.862 187.293 491.07 186.58 489.85 185.154C488.639 183.729 488.033 181.746 488.033 179.207C488.033 177.625 488.341 176.194 488.956 174.915C489.581 173.636 490.45 172.63 491.563 171.897C492.687 171.165 493.961 170.799 495.387 170.799C499.586 170.799 501.686 173.147 501.686 177.845C501.686 178.167 501.666 178.489 501.627 178.812C501.588 179.134 501.559 179.344 501.539 179.441L491.183 179.5ZM498.507 177.244C498.507 176.023 498.243 175.037 497.716 174.285C497.198 173.523 496.368 173.143 495.226 173.143C494.063 173.143 493.141 173.533 492.457 174.314C491.783 175.096 491.397 176.072 491.3 177.244H498.507ZM514.869 173.494C514.732 173.455 514.405 173.397 513.888 173.318C513.37 173.24 512.799 173.201 512.174 173.201C510.738 173.201 509.63 173.665 508.849 174.593C508.067 175.521 507.677 176.907 507.677 178.753C507.677 180.755 508.087 182.283 508.907 183.338C509.728 184.383 510.865 184.905 512.32 184.905C513.16 184.905 513.927 184.769 514.62 184.495C515.313 184.222 515.88 183.934 516.319 183.631C516.759 183.318 516.979 183.143 516.979 183.104L518.033 184.905C518.033 184.944 517.721 185.174 517.096 185.594C516.48 186.014 515.724 186.404 514.825 186.766C513.937 187.117 513.004 187.293 512.027 187.293C509.586 187.293 507.726 186.57 506.446 185.125C505.167 183.68 504.527 181.653 504.527 179.046C504.527 177.444 504.845 176.019 505.479 174.769C506.124 173.519 507.032 172.547 508.204 171.854C509.376 171.15 510.748 170.799 512.32 170.799C513.121 170.799 513.902 170.892 514.664 171.077C515.426 171.253 516.046 171.438 516.524 171.634C517.003 171.819 517.306 171.941 517.433 172L517.271 176.043H515.323L514.869 173.494ZM524.918 172.967C525.563 172.42 526.354 171.922 527.291 171.473C528.229 171.023 529.186 170.799 530.162 170.799C531.764 170.799 532.965 171.277 533.766 172.234C534.566 173.182 534.967 174.505 534.967 176.204V184.598L537.223 185.345V187H530.016V185.345L531.964 184.627V176.497C531.964 175.413 531.764 174.617 531.363 174.109C530.963 173.602 530.294 173.348 529.356 173.348C528.595 173.348 527.882 173.528 527.218 173.89C526.563 174.251 526.017 174.642 525.577 175.062C525.138 175.481 524.918 175.711 524.918 175.75V184.598L526.866 185.345V187H519.366V185.345L521.915 184.598V166.302L519.366 165.701V164.046L524.918 163.899V172.967Z" fill="black"/>
<line x1="511.5" y1="225.035" x2="510.5" y2="442.035" stroke="#533436" stroke-width="15"/>
<path d="M52.4921 411.441C48.7883 411.441 45.0769 411.599 41.4524 411.918L40.9249 411.964C16.8835 414.164 -0.701709 426.927 0.0215192 441.652L0.161336 444.315C0.253538 445.998 0.351776 447.807 0.432636 449.815C0.476432 450.805 1.78164 451.565 3.40571 451.565H594.766C636.46 451.303 678.002 450.973 718.233 450.584C725.778 450.601 733.319 450.196 740.822 449.373C752.002 448.003 759.762 445.288 764.547 441.073H764.549C770.5 435.846 770.687 429.263 770.327 421.826C769.594 406.808 768.867 391.032 768.142 375.304C767.501 361.442 766.863 347.618 766.225 334.382C765.831 326.527 764.954 319.594 758.196 314.295C750.872 308.565 737.513 305.66 718.492 305.66C718.262 305.66 718.034 305.66 717.801 305.661C658.188 305.881 599.122 327.097 570.823 358.456C567.564 362.067 564.527 365.933 561.591 369.673C557.251 375.196 552.765 380.907 547.412 386.014C544.513 388.817 541.378 391.346 538.045 393.572C537.815 393.736 537.552 393.912 537.274 394.08C536.638 394.509 535.973 394.923 535.324 395.291C531.528 397.561 527.527 399.443 523.379 400.912L522.961 401.058C522.645 401.174 522.304 401.291 521.962 401.398C519.567 402.194 517.078 402.882 514.585 403.438C503.797 405.899 491.531 406.49 478.128 405.19C465.819 403.966 453.67 401.403 441.879 397.544C429.468 393.484 417.851 388.422 406.616 383.527C401.681 381.376 396.577 379.153 391.479 377.046C390.521 376.649 389.579 376.262 388.622 375.874C382.396 373.362 376.752 371.288 371.366 369.533C358.024 365.166 344.213 362.518 330.245 361.649C315.419 360.809 302.354 362.394 291.422 366.348C288.408 367.434 285.473 368.743 282.64 370.265C269.691 377.225 261.709 387.497 253.99 397.431C244.387 409.788 234.458 422.566 214.851 429.191C192.227 436.841 159.202 433.663 135.838 428.135C128.492 426.397 121.156 424.398 114.06 422.464C111.194 421.682 108.327 420.906 105.457 420.135C99.8176 418.628 95.2024 417.474 90.9325 416.499L89.582 416.188C88.8308 416.019 88.0788 415.85 87.3133 415.689C82.2416 414.587 77.519 413.72 72.8682 413.038L71.7678 412.871C69.5618 412.571 67.4995 412.32 65.4756 412.11L64.6677 412.027C60.7039 411.637 56.6018 411.441 52.4921 411.441Z" fill="#6CDDC2"/>
<path d="M663.993 427.875C680.632 412.355 705.383 404.551 726.143 413.253C704.847 425.492 688.42 445.133 679.767 468.702C676.462 477.803 673.701 488.283 665.572 493.156C660.514 496.188 654.221 496.337 648.549 494.873C642.878 493.409 637.679 490.475 632.552 487.57L631.093 487.535C637.642 465.364 647.353 443.396 663.993 427.875Z" fill="#83DD6C"/>
<path d="M726.027 413.725C707.64 416.185 690.469 424.579 676.953 437.714C673.995 440.489 671.478 443.729 669.495 447.314C667.671 450.872 666.802 454.87 666.976 458.893C667.066 462.648 667.578 466.477 666.785 470.189C666.351 472.083 665.536 473.86 664.392 475.405C663.249 476.95 661.803 478.227 660.149 479.152C656.086 481.57 651.426 482.332 646.844 482.913C641.757 483.559 636.462 484.146 632.059 487.099C631.525 487.457 631.02 486.579 631.553 486.222C639.214 481.083 648.91 482.953 657.148 479.523C660.992 477.923 664.394 475.114 665.598 470.867C666.651 467.153 666.126 463.203 666.003 459.402C665.777 455.48 666.483 451.56 668.058 447.986C669.859 444.307 672.251 440.972 675.133 438.124C681.521 431.606 688.861 426.167 696.881 422.009C706.01 417.21 715.864 414.062 726.018 412.703C726.647 412.619 726.652 413.642 726.027 413.725Z" fill="white"/>
<path d="M681.065 433.219C679.244 430.573 678.391 427.343 678.658 424.105C678.925 420.868 680.296 417.834 682.524 415.546C682.977 415.084 683.691 415.791 683.238 416.253C681.158 418.379 679.882 421.205 679.639 424.221C679.396 427.236 680.203 430.242 681.913 432.696C682.284 433.229 681.434 433.75 681.065 433.219Z" fill="white"/>
<path d="M666.689 456.995C673.007 458.154 679.516 456.805 684.916 453.218C685.451 452.862 685.956 453.739 685.422 454.095C679.796 457.817 673.02 459.207 666.447 457.986C665.821 457.869 666.066 456.879 666.689 456.995Z" fill="white"/>
<path d="M706.09 418.562C706.589 419.738 707.362 420.767 708.34 421.558C709.318 422.348 710.47 422.875 711.693 423.09C712.321 423.199 712.075 424.189 711.452 424.081C710.101 423.836 708.829 423.253 707.747 422.382C706.665 421.512 705.805 420.38 705.243 419.086C705.18 418.968 705.162 418.831 705.194 418.701C705.226 418.57 705.304 418.458 705.413 418.385C705.526 418.316 705.66 418.296 705.787 418.33C705.914 418.363 706.023 418.446 706.09 418.562Z" fill="white"/>
<path d="M749.005 488.102C748.611 488.045 748.217 487.989 747.818 487.939C742.521 487.211 737.176 486.93 731.835 487.099C731.422 487.105 731.003 487.118 730.591 487.136C717.728 487.684 705.076 490.698 693.276 496.027C688.582 498.152 684.052 500.643 679.724 503.479C673.746 507.397 667.566 512.136 660.885 513.734C660.189 513.909 659.484 514.039 658.773 514.123L631.166 489.38C631.13 489.291 631.089 489.209 631.053 489.12L629.907 488.184C630.121 488.022 630.345 487.858 630.559 487.695C630.682 487.601 630.812 487.511 630.935 487.417C631.019 487.355 631.104 487.294 631.176 487.234C631.204 487.213 631.232 487.193 631.255 487.179C631.328 487.118 631.401 487.07 631.468 487.016C632.722 486.098 633.983 485.187 635.254 484.283C635.259 484.276 635.259 484.276 635.271 484.275C644.886 477.294 655.267 471.518 666.196 467.068C666.524 466.94 666.857 466.805 667.198 466.688C672.12 464.794 677.183 463.319 682.338 462.279C685.162 461.718 688.011 461.306 690.876 461.044C698.278 460.382 705.735 460.928 712.973 462.665C727.402 466.128 740.6 474.329 748.417 487.118C748.616 487.446 748.81 487.768 749.005 488.102Z" fill="#83DD6C"/>
<path d="M748.64 488.409C732.528 478.914 713.935 474.915 695.503 476.98C691.527 477.352 687.633 478.37 683.964 479.997C680.439 481.701 677.419 484.352 675.218 487.672C673.106 490.726 671.287 494.103 668.495 496.572C667.047 497.814 665.362 498.725 663.551 499.246C661.739 499.767 659.841 499.885 657.983 499.594C653.332 498.992 649.168 496.696 645.172 494.305C640.734 491.65 636.166 488.819 630.932 488.433C630.298 488.386 630.405 487.371 631.038 487.417C640.145 488.089 646.798 495.624 655.371 498.02C659.371 499.138 663.721 499.014 667.153 496.374C670.154 494.064 672.032 490.584 674.145 487.473C676.246 484.2 679.089 481.51 682.426 479.638C686.004 477.823 689.853 476.651 693.811 476.173C702.703 474.95 711.727 475.181 720.55 476.859C730.63 478.716 740.329 482.345 749.227 487.587C749.777 487.912 749.187 488.731 748.64 488.409Z" fill="white"/>
<path d="M701.4 475.954C701.485 472.706 702.683 469.594 704.779 467.176C706.876 464.758 709.735 463.189 712.845 462.751C713.475 462.665 713.634 463.674 713.004 463.76C710.106 464.163 707.444 465.624 705.496 467.88C703.548 470.136 702.443 473.039 702.381 476.064C702.367 476.721 701.386 476.607 701.4 475.954Z" fill="white"/>
<path d="M676.092 485.978C680.463 490.841 686.444 493.82 692.843 494.321C693.477 494.37 693.37 495.386 692.737 495.337C686.079 494.803 679.861 491.689 675.323 486.619C674.89 486.135 675.662 485.497 676.092 485.978Z" fill="white"/>
<path d="M729.907 479.846C729.621 481.096 729.64 482.399 729.961 483.64C730.282 484.88 730.895 486.019 731.747 486.953C732.185 487.431 731.413 488.068 730.978 487.594C730.042 486.557 729.365 485.299 729.008 483.929C728.65 482.559 728.622 481.12 728.925 479.736C728.944 479.603 729.01 479.483 729.111 479.398C729.212 479.314 729.34 479.273 729.469 479.283C729.599 479.298 729.718 479.366 729.8 479.472C729.882 479.577 729.92 479.712 729.907 479.846Z" fill="white"/>
<path d="M228.399 443.311C242.024 421.92 266.398 406.446 290.941 409.776C271.454 428.998 259.163 454.735 256.243 482.434C255.155 493.12 255.019 505.124 247.634 512.676C243.039 517.376 236.348 519.347 229.889 519.414C223.43 519.482 217.081 517.84 210.816 516.21L209.247 516.594C210.292 490.994 214.774 464.703 228.399 443.311Z" fill="#83DD6C"/>
<path d="M290.944 410.313C271.939 418.239 255.83 432.161 244.905 450.102C242.487 453.921 240.666 458.111 239.508 462.517C238.514 466.847 238.659 471.374 239.927 475.626C241.032 479.616 242.609 483.565 242.758 487.763C242.803 489.913 242.409 492.049 241.601 494.03C240.793 496.012 239.589 497.794 238.069 499.26C234.374 503.016 229.595 505.173 224.85 507.114C219.583 509.269 214.078 511.421 210.162 515.849C209.688 516.385 208.911 515.591 209.385 515.056C216.198 507.354 227.07 506.561 234.96 500.521C238.641 497.702 241.524 493.718 241.67 488.829C241.798 484.554 240.175 480.481 239.023 476.451C237.727 472.321 237.428 467.926 238.152 463.649C239.089 459.196 240.752 454.941 243.068 451.065C248.149 442.253 254.537 434.323 261.998 427.566C270.471 419.804 280.165 413.601 290.659 409.223C291.309 408.952 291.589 410.044 290.944 410.313Z" fill="white"/>
<path d="M248.095 444.111C245.435 441.805 243.655 438.596 243.07 435.056C242.486 431.517 243.136 427.877 244.905 424.788C245.265 424.164 246.218 424.714 245.858 425.339C244.206 428.212 243.6 431.602 244.151 434.897C244.702 438.192 246.372 441.175 248.86 443.307C249.401 443.771 248.632 444.572 248.095 444.111Z" fill="white"/>
<path d="M239.109 473.68C246.178 473.1 252.777 469.783 257.589 464.391C258.065 463.856 258.841 464.65 258.366 465.184C253.348 470.785 246.475 474.222 239.117 474.809C238.416 474.865 238.411 473.735 239.109 473.68Z" fill="white"/>
<path d="M270.921 421.228C271.77 422.342 272.873 423.221 274.132 423.784C275.39 424.348 276.764 424.579 278.13 424.458C278.83 424.393 278.834 425.523 278.138 425.587C276.628 425.714 275.111 425.457 273.72 424.837C272.328 424.218 271.104 423.255 270.155 422.033C270.056 421.925 270.001 421.783 270 421.634C269.998 421.486 270.052 421.343 270.149 421.234C270.251 421.128 270.389 421.068 270.534 421.067C270.678 421.066 270.817 421.124 270.921 421.228Z" fill="white"/>
<path d="M335.509 483.245C335.073 483.299 334.637 483.352 334.196 483.413C328.335 484.16 322.543 485.399 316.876 487.117C316.436 487.243 315.992 487.377 315.556 487.515C301.946 491.805 289.224 498.673 278.036 507.769C273.587 511.393 269.411 515.363 265.544 519.643C260.204 525.554 254.868 532.402 248.151 536.035C247.454 536.422 246.735 536.765 245.998 537.06L209.82 518.546C209.758 518.461 209.692 518.385 209.63 518.3L208.153 517.629C208.337 517.394 208.534 517.154 208.718 516.919C208.825 516.782 208.939 516.649 209.046 516.512C209.119 516.422 209.193 516.332 209.255 516.247C209.279 516.217 209.304 516.187 209.324 516.166C209.386 516.08 209.451 516.007 209.509 515.93C210.602 514.587 211.707 513.249 212.823 511.917C212.827 511.908 212.827 511.908 212.839 511.904C221.364 501.776 230.782 492.295 241.29 484.595C241.606 484.364 241.926 484.123 242.259 483.9C247.014 480.457 252.033 477.421 257.266 474.824C260.136 473.412 263.073 472.15 266.066 471.045C273.805 468.205 281.927 466.643 290.135 466.415C306.498 465.964 322.818 470.935 334.616 482.363C334.918 482.656 335.211 482.944 335.509 483.245Z" fill="#83DD6C"/>
<path d="M335.201 483.679C315.417 478.163 294.457 479.24 275.298 486.757C271.146 488.299 267.254 490.51 263.767 493.306C260.455 496.144 257.937 499.848 256.476 504.034C255.038 507.908 254 512.044 251.677 515.489C250.463 517.234 248.906 518.694 247.108 519.772C245.31 520.851 243.313 521.524 241.246 521.747C236.111 522.442 231.041 521.186 226.124 519.78C220.664 518.218 215.017 516.506 209.315 517.6C208.624 517.733 208.466 516.615 209.156 516.483C219.076 514.579 228.217 520.722 238.03 520.816C242.609 520.86 247.228 519.475 250.189 515.663C252.778 512.329 253.851 508.065 255.275 504.129C256.642 500.024 258.96 496.329 262.026 493.365C265.364 490.393 269.167 488.032 273.271 486.381C282.453 482.512 292.166 480.161 302.054 479.415C313.334 478.499 324.682 479.586 335.608 482.631C336.284 482.82 335.872 483.866 335.201 483.679Z" fill="white"/>
<path d="M281.329 483.961C280.547 480.462 280.992 476.79 282.584 473.6C284.177 470.41 286.813 467.909 290.022 466.545C290.672 466.271 291.113 467.304 290.462 467.578C287.472 468.843 285.016 471.172 283.54 474.146C282.063 477.12 281.662 480.543 282.408 483.796C282.57 484.503 281.49 484.664 281.329 483.961Z" fill="white"/>
<path d="M256.955 501.97C262.937 505.912 270.135 507.376 277.114 506.069C277.805 505.939 277.963 507.057 277.273 507.186C270.009 508.532 262.521 506.993 256.305 502.877C255.713 502.484 256.366 501.579 256.955 501.97Z" fill="white"/>
<path d="M312.865 479.915C312.895 481.334 313.265 482.723 313.942 483.957C314.618 485.191 315.581 486.232 316.742 486.986C317.339 487.371 316.685 488.275 316.092 487.893C314.812 487.054 313.751 485.903 313 484.541C312.249 483.179 311.832 481.647 311.785 480.08C311.769 479.933 311.807 479.784 311.893 479.665C311.978 479.546 312.104 479.465 312.245 479.439C312.388 479.418 312.534 479.456 312.65 479.545C312.766 479.634 312.843 479.767 312.865 479.915Z" fill="white"/>
<path d="M325.37 282.934C326.274 282.003 326.97 280.878 327.409 279.638C327.847 278.399 328.018 277.075 327.909 275.76C327.8 274.444 327.413 273.17 326.777 272.026C326.14 270.882 325.269 269.897 324.225 269.139L338.464 197.805L323.101 202.821L311.645 271.832C310.531 273.732 310.13 275.989 310.517 278.175C310.903 280.361 312.051 282.325 313.743 283.693C315.435 285.062 317.553 285.74 319.696 285.6C321.839 285.46 323.858 284.512 325.37 282.934Z" fill="#FFB6B6"/>
<path d="M358.284 92.2544L348.768 84.8187C348.768 84.8187 340.372 84.2033 338.886 99.8742C337.399 115.545 328.089 175.689 328.089 175.689L313.527 245.503L333.685 250.083L349.282 174.742L364.896 122.764L358.284 92.2544Z" fill="#3F3D56"/>
<path d="M351.035 221.435L305.385 184.694C304.674 184.121 304.212 183.278 304.1 182.353C303.988 181.427 304.235 180.493 304.788 179.755L335.847 138.408C336.402 137.672 337.215 137.194 338.11 137.078C339.004 136.962 339.906 137.218 340.619 137.79L386.269 174.531C386.98 175.104 387.442 175.946 387.554 176.872C387.666 177.798 387.418 178.732 386.866 179.47L355.806 220.817C355.252 221.553 354.438 222.031 353.544 222.147C352.649 222.263 351.747 222.007 351.035 221.435Z" fill="#3F3D56"/>
<path d="M350.942 217.697L309.164 184.073C308.533 183.564 308.123 182.816 308.023 181.994C307.924 181.172 308.144 180.343 308.634 179.688L336.791 142.205C337.283 141.552 338.006 141.127 338.8 141.024C339.594 140.921 340.395 141.149 341.028 141.657L382.805 175.28C383.436 175.79 383.847 176.537 383.946 177.359C384.046 178.182 383.826 179.011 383.335 179.665L355.178 217.148C354.686 217.802 353.964 218.227 353.17 218.33C352.375 218.432 351.574 218.205 350.942 217.697Z" fill="#533436"/>
<path d="M314.483 183.055C314.325 182.928 314.223 182.741 314.198 182.536C314.173 182.33 314.228 182.123 314.35 181.959L328.555 163.05C328.678 162.887 328.858 162.78 329.057 162.755C329.155 162.742 329.255 162.749 329.351 162.776C329.446 162.804 329.536 162.85 329.614 162.913C329.692 162.976 329.758 163.054 329.807 163.143C329.856 163.233 329.887 163.331 329.899 163.433C329.912 163.535 329.905 163.638 329.878 163.737C329.852 163.836 329.807 163.928 329.746 164.009L315.542 182.918C315.419 183.082 315.238 183.188 315.04 183.214C314.841 183.239 314.641 183.182 314.483 183.055Z" fill="#E4E4E4"/>
<path d="M316.837 184.95C316.68 184.823 316.577 184.636 316.552 184.43C316.527 184.225 316.582 184.017 316.705 183.854L330.909 164.945C331.032 164.781 331.213 164.675 331.411 164.649C331.61 164.623 331.81 164.68 331.968 164.808C332.126 164.935 332.229 165.122 332.254 165.327C332.279 165.533 332.224 165.74 332.101 165.904L317.897 184.813C317.774 184.976 317.593 185.082 317.394 185.108C317.196 185.134 316.996 185.077 316.837 184.95Z" fill="#E4E4E4"/>
<path d="M327.239 176.132C327.081 176.005 326.978 175.818 326.954 175.612C326.929 175.407 326.984 175.2 327.106 175.036L333.264 166.839C333.324 166.758 333.4 166.69 333.486 166.639C333.572 166.588 333.667 166.556 333.766 166.543C333.864 166.53 333.964 166.537 334.06 166.564C334.156 166.592 334.245 166.638 334.323 166.701C334.402 166.764 334.467 166.843 334.516 166.932C334.565 167.021 334.597 167.12 334.609 167.221C334.621 167.323 334.614 167.427 334.588 167.526C334.561 167.625 334.516 167.717 334.455 167.798L328.298 175.995C328.175 176.158 327.994 176.265 327.796 176.29C327.597 176.316 327.397 176.259 327.239 176.132Z" fill="#E4E4E4"/>
<path d="M330.413 192.217C330.255 192.09 330.152 191.903 330.127 191.697C330.103 191.492 330.158 191.285 330.28 191.121L352.705 161.269C352.765 161.188 352.841 161.121 352.927 161.07C353.013 161.019 353.108 160.987 353.207 160.974C353.305 160.961 353.405 160.969 353.5 160.996C353.596 161.023 353.685 161.069 353.764 161.132C353.842 161.195 353.907 161.274 353.956 161.363C354.005 161.452 354.037 161.55 354.049 161.652C354.061 161.754 354.054 161.857 354.028 161.956C354.002 162.055 353.957 162.147 353.896 162.228L331.472 192.08C331.349 192.243 331.168 192.35 330.97 192.375C330.771 192.401 330.571 192.344 330.413 192.217Z" fill="#E4E4E4"/>
<path d="M332.767 194.112C332.609 193.985 332.507 193.798 332.482 193.593C332.457 193.387 332.512 193.18 332.635 193.016L355.059 163.164C355.12 163.083 355.195 163.016 355.282 162.965C355.368 162.914 355.463 162.882 355.561 162.869C355.659 162.856 355.759 162.864 355.855 162.891C355.95 162.918 356.04 162.964 356.118 163.027C356.196 163.09 356.262 163.169 356.311 163.258C356.36 163.347 356.391 163.445 356.404 163.547C356.416 163.649 356.409 163.752 356.383 163.851C356.356 163.95 356.311 164.043 356.251 164.124L333.826 193.975C333.703 194.138 333.523 194.245 333.324 194.27C333.126 194.296 332.925 194.239 332.767 194.112Z" fill="#E4E4E4"/>
<path d="M338.111 198.413C337.954 198.286 337.851 198.099 337.826 197.893C337.801 197.688 337.856 197.48 337.979 197.317L360.403 167.465C360.464 167.384 360.54 167.316 360.626 167.266C360.712 167.215 360.807 167.182 360.905 167.17C361.004 167.157 361.103 167.164 361.199 167.192C361.295 167.219 361.384 167.265 361.462 167.328C361.541 167.391 361.606 167.469 361.655 167.559C361.704 167.648 361.736 167.746 361.748 167.848C361.76 167.95 361.753 168.053 361.727 168.152C361.7 168.251 361.656 168.343 361.595 168.424L339.17 198.276C339.047 198.439 338.867 198.545 338.668 198.571C338.47 198.597 338.27 198.54 338.111 198.413Z" fill="#E4E4E4"/>
<path d="M340.465 200.308C340.308 200.181 340.205 199.994 340.18 199.788C340.155 199.583 340.21 199.375 340.333 199.212L362.757 169.36C362.818 169.279 362.894 169.211 362.98 169.161C363.066 169.11 363.161 169.077 363.259 169.065C363.358 169.052 363.457 169.059 363.553 169.087C363.649 169.114 363.738 169.16 363.816 169.223C363.895 169.286 363.96 169.364 364.009 169.454C364.058 169.543 364.09 169.641 364.102 169.743C364.114 169.845 364.107 169.948 364.081 170.047C364.055 170.146 364.01 170.238 363.949 170.319L341.525 200.171C341.402 200.334 341.221 200.44 341.022 200.466C340.824 200.492 340.624 200.435 340.465 200.308Z" fill="#E4E4E4"/>
<path d="M345.81 204.609C345.652 204.482 345.549 204.295 345.524 204.09C345.5 203.884 345.554 203.677 345.677 203.513L368.101 173.662C368.162 173.581 368.238 173.513 368.324 173.462C368.41 173.411 368.505 173.379 368.604 173.366C368.702 173.353 368.802 173.361 368.897 173.388C368.993 173.415 369.082 173.461 369.161 173.524C369.239 173.587 369.304 173.666 369.353 173.755C369.402 173.844 369.434 173.942 369.446 174.044C369.458 174.146 369.451 174.249 369.425 174.348C369.399 174.447 369.354 174.54 369.293 174.621L346.869 204.472C346.746 204.635 346.565 204.742 346.367 204.767C346.168 204.793 345.968 204.736 345.81 204.609Z" fill="#E4E4E4"/>
<path d="M348.164 206.504C348.006 206.376 347.903 206.19 347.878 205.984C347.854 205.779 347.908 205.571 348.031 205.408L370.456 175.556C370.579 175.393 370.759 175.288 370.957 175.262C371.156 175.237 371.355 175.294 371.513 175.421C371.671 175.548 371.773 175.734 371.799 175.939C371.824 176.144 371.769 176.352 371.647 176.515L349.223 206.367C349.1 206.53 348.919 206.636 348.721 206.662C348.522 206.688 348.322 206.631 348.164 206.504Z" fill="#E4E4E4"/>
<path d="M310.685 241.172C310.856 241.172 310.995 241.028 310.995 240.851C310.995 240.674 310.856 240.53 310.685 240.53C310.514 240.53 310.375 240.674 310.375 240.851C310.375 241.028 310.514 241.172 310.685 241.172Z" fill="white"/>
<path d="M355.838 20.1646C354.748 26.2259 352.961 32.1303 350.514 37.7517C336.506 68.4262 376.4 58.4279 390.656 58.4279C406.244 58.4279 421.158 66.9121 418.88 29.214C417.907 13.111 406.244 0 390.656 0C377.342 0 358.622 6.12559 355.838 20.1646Z" fill="#2F2E41"/>
<path d="M405.186 470.049H391.905L385.585 417.027H405.186V470.049Z" fill="#FFB6B6"/>
<path d="M412.196 493.867H402.672L400.972 484.56L396.618 493.867H371.358C370.147 493.867 368.968 493.466 367.993 492.724C367.017 491.981 366.297 490.935 365.936 489.738C365.576 488.542 365.595 487.258 365.99 486.073C366.384 484.888 367.135 483.865 368.131 483.153L388.303 468.733V459.323L409.52 460.634L412.196 493.867Z" fill="#2F2E41"/>
<path d="M484.086 452.701L473.429 460.904L437.791 422.26L453.52 410.153L484.086 452.701Z" fill="#FFB6B6"/>
<path d="M503.442 467.485L495.799 473.367L489.069 466.948L490.941 477.106L470.671 492.708C469.7 493.456 468.523 493.863 467.312 493.869C466.101 493.876 464.92 493.481 463.941 492.744C462.962 492.006 462.237 490.964 461.87 489.769C461.504 488.575 461.517 487.29 461.906 486.104L469.779 462.073L464.355 454.522L482.137 442.469L503.442 467.485Z" fill="#2F2E41"/>
<path d="M361.69 226.023L424.733 215.86L412.196 176.821H361.69V226.023Z" fill="#FFB6B6"/>
<path d="M420.648 196.483C420.648 196.483 445.846 219.017 434.22 283.254L420.026 346.197L458.697 415.69L439.034 426.791L391.379 358.234L369.573 305.288L358.038 212.495L420.648 196.483Z" fill="#2F2E41"/>
<path d="M381.592 320.376L380.076 344.672L384.513 416.615L406.539 424.465L410.71 350.752L381.592 320.376Z" fill="#2F2E41"/>
<path d="M374.82 66.5137L399.189 67.4977L408.901 84.185L431.06 88.6625L417.832 157.93L420.264 197.357L398.2 197.218C382.299 197.117 366.922 203.097 355.018 214.009L355.678 162.831L346.188 124.626L348.321 84.5669L366.146 82.2605L374.82 66.5137Z" fill="#3F3D56"/>
<path d="M388.321 58.4207C400.988 58.4207 411.256 47.7921 411.256 34.681C411.256 21.57 400.988 10.9414 388.321 10.9414C375.655 10.9414 365.386 21.57 365.386 34.681C365.386 47.7921 375.655 58.4207 388.321 58.4207Z" fill="#FFB6B6"/>
<path d="M372.746 10.4818C376.765 7.94577 381.368 6.57391 386.074 6.50969C390.781 6.44546 395.418 7.69123 399.5 10.1167C403.582 12.5422 406.959 16.0583 409.279 20.2975C411.599 24.5366 412.776 29.343 412.687 34.2141C401.001 37.2512 388.723 39.5754 376.26 34.9405L373.317 27.4846L371.582 34.9461C367.787 36.5518 363.981 37.9104 360.176 34.9306C360.021 30.0732 361.1 25.2586 363.306 20.9682C365.512 16.6778 368.767 13.0619 372.746 10.4818Z" fill="#2F2E41"/>
<path d="M426.818 245.219L429.91 274.261C430.125 274.986 430.559 275.62 431.148 276.07C431.737 276.521 432.45 276.764 433.183 276.764H447.434C448.167 276.764 448.88 276.521 449.469 276.07C450.059 275.62 450.493 274.986 450.708 274.261L453.269 252.002C454.008 252.377 454.823 252.565 455.646 252.551C456.469 252.536 457.277 252.32 458.003 251.919C458.73 251.519 459.354 250.946 459.825 250.247C460.296 249.548 460.6 248.743 460.712 247.899C460.823 247.055 460.74 246.195 460.468 245.391C460.197 244.586 459.744 243.86 459.149 243.272C458.553 242.684 457.831 242.251 457.042 242.008C456.253 241.765 455.419 241.719 454.61 241.874C454.291 241.484 453.892 241.17 453.444 240.955C452.995 240.74 452.506 240.63 452.012 240.631H430.092C429.556 240.631 429.027 240.761 428.549 241.011C428.07 241.261 427.655 241.624 427.337 242.07C427.018 242.516 426.805 243.034 426.715 243.58C426.625 244.127 426.66 244.688 426.818 245.219ZM453.716 250.496L455.285 245.219C455.467 244.61 455.484 243.961 455.337 243.342C455.404 243.339 455.467 243.322 455.535 243.322C456.52 243.322 457.464 243.727 458.161 244.447C458.857 245.168 459.248 246.146 459.248 247.166C459.248 248.185 458.857 249.163 458.161 249.884C457.464 250.605 456.52 251.009 455.535 251.009C454.896 251.005 454.269 250.828 453.716 250.496Z" fill="#FA0D1B"/>
<path d="M448.308 276.784C447.408 275.848 446.718 274.72 446.285 273.478C445.853 272.236 445.689 270.911 445.804 269.596C445.92 268.282 446.313 267.009 446.955 265.869C447.597 264.728 448.473 263.747 449.521 262.995L435.631 191.587L450.97 196.684L462.087 265.754C463.191 267.66 463.582 269.919 463.184 272.103C462.787 274.287 461.629 276.245 459.93 277.604C458.232 278.964 456.111 279.631 453.969 279.48C451.826 279.329 449.812 278.37 448.308 276.784Z" fill="#FFB6B6"/>
<path d="M421.543 96.0982L431.06 88.6624C431.06 88.6624 439.455 88.0471 440.942 103.718C442.429 119.389 451.738 179.533 451.738 179.533L466.301 249.347L446.142 253.927L430.545 178.586L414.932 126.608L421.543 96.0982Z" fill="#3F3D56"/>
<path d="M339.408 161.101C342.383 161.101 344.795 158.605 344.795 155.525C344.795 152.446 342.383 149.949 339.408 149.949C336.433 149.949 334.021 152.446 334.021 155.525C334.021 158.605 336.433 161.101 339.408 161.101Z" fill="white"/>
<path d="M167.624 534.736L178.851 534.735L184.192 489.913L167.622 489.914L167.624 534.736Z" fill="#FFB6B6"/>
<path d="M164.76 530.941L167.92 530.941L180.257 525.748L186.87 530.94C190.606 530.941 194.191 532.477 196.833 535.212C199.476 537.947 200.96 541.657 200.96 545.525V545.998L164.761 546L164.76 530.941Z" fill="#2F2E41"/>
<path d="M211.129 527.413L222.081 529.972L236.829 487.469L220.666 483.691L211.129 527.413Z" fill="#FFB6B6"/>
<path d="M209.144 523.059L212.226 523.779L225.366 521.526L230.71 528.099L230.711 528.099C234.356 528.951 237.525 531.267 239.52 534.538C241.516 537.808 242.174 541.765 241.351 545.537L241.251 546L205.94 537.747L209.144 523.059Z" fill="#2F2E41"/>
<path d="M147.071 304.176L157.223 421.909C157.223 421.909 153.419 492.591 165.694 517.463H183.495L192.309 415.455L193.415 346.986L231.579 404.75L207.272 515.796L229.181 517.823L268.625 397.313L225.29 284.183L147.071 304.176Z" fill="#2F2E41"/>
<path d="M157.703 116.689C172.163 116.689 183.885 104.556 183.885 89.5893C183.885 74.6224 172.163 62.4893 157.703 62.4893C143.244 62.4893 131.522 74.6224 131.522 89.5893C131.522 104.556 143.244 116.689 157.703 116.689Z" fill="#FFB8B8"/>
<path d="M203.728 142.514L182.249 132.975L171.793 121.495L145.672 125.856L138.742 138.156L116.307 159.749L142.592 282.767L141.797 309.636C141.797 309.636 158.62 317.475 231.579 299.426C232.454 299.209 230.622 298.262 230.622 298.262L203.728 142.514Z" fill="#3F3D56"/>
<path d="M130.479 104.967C130.297 104.709 130.116 104.449 129.937 104.187C129.865 104.344 129.808 104.507 129.726 104.661L130.479 104.967Z" fill="#2F2E41"/>
<path d="M183.747 69.7664C181.997 65.8201 178.877 62.6999 175.006 61.0256C171.17 59.424 166.882 59.4278 163.049 61.0365C159.587 58.7729 155.742 56.9784 151.691 56.7562C147.641 56.5339 143.359 58.0892 140.863 61.5128C140.306 62.4165 139.673 63.2678 138.971 64.0568C136.965 65.9799 133.916 65.7025 131.249 65.3093C132.445 66.3704 133.642 67.4315 134.839 68.4925C133.391 68.884 131.943 69.2755 130.495 69.6671C132.184 70.7278 133.874 71.7885 135.563 72.8493C130.658 75.8967 128.429 82.548 129.018 88.5889C129.575 94.3082 132.242 99.5381 135.431 104.187C136.704 101.408 136.429 98.083 136.408 94.9535C136.387 91.6468 136.952 87.8919 139.512 86.0438C141.238 84.7972 143.459 84.7416 145.541 84.7534C156.045 84.813 166.536 85.491 176.966 86.784C178.381 86.8474 179.761 87.2617 180.989 87.9919C183.295 89.6205 183.745 92.9815 183.976 95.9301C185.195 91.0615 185.791 86.0485 185.75 81.0194C185.853 77.1645 185.17 73.3304 183.747 69.7664Z" fill="#2F2E41"/>
<path d="M191.898 386.708C214.657 386.708 233.106 367.612 233.106 344.055C233.106 320.498 214.657 301.401 191.898 301.401C169.14 301.401 150.69 320.498 150.69 344.055C150.69 367.612 169.14 386.708 191.898 386.708Z" fill="#6CDDC2"/>
<path d="M191.899 300.453C189.78 300.453 187.665 300.618 185.571 300.946C184.499 301.107 183.456 301.316 182.421 301.572C174.818 303.385 167.853 307.35 162.301 313.023C156.748 318.696 152.828 325.854 150.977 333.698C149.126 341.543 149.417 349.765 151.818 357.449C154.219 365.132 158.635 371.974 164.573 377.211C165.278 377.827 165.992 378.424 166.734 378.993C172.08 383.119 178.297 385.871 184.871 387.025C191.446 388.178 198.191 387.699 204.552 385.626C210.913 383.554 216.707 379.948 221.459 375.104C226.21 370.261 229.782 364.319 231.881 357.767C233.98 351.216 234.546 344.242 233.533 337.42C232.519 330.597 229.955 324.122 226.051 318.526C222.147 312.93 217.016 308.373 211.078 305.231C205.14 302.089 198.567 300.452 191.899 300.453ZM191.899 385.761C183.331 385.77 174.986 382.936 168.09 377.675C167.339 377.107 166.615 376.519 165.91 375.893C160.124 370.842 155.831 364.204 153.524 356.742C151.216 349.28 150.987 341.296 152.862 333.705C154.738 326.115 158.642 319.225 164.128 313.827C169.614 308.428 176.458 304.739 183.877 303.183C184.902 302.965 185.928 302.794 186.972 302.662C188.606 302.452 190.252 302.348 191.899 302.349C202.585 302.349 212.833 306.743 220.389 314.564C227.946 322.386 232.191 332.994 232.191 344.055C232.191 355.116 227.946 365.724 220.389 373.545C212.833 381.367 202.585 385.761 191.899 385.761Z" fill="#3F3D56"/>
<path d="M171.686 335.524H212.11C213.591 335.524 214.792 334.281 214.792 332.749V332.612C214.792 331.079 213.591 329.837 212.11 329.837H171.686C170.205 329.837 169.005 331.079 169.005 332.612V332.749C169.005 334.281 170.205 335.524 171.686 335.524Z" fill="white"/>
<path d="M171.686 346.898H212.11C213.591 346.898 214.792 345.655 214.792 344.123V343.986C214.792 342.453 213.591 341.211 212.11 341.211H171.686C170.205 341.211 169.005 342.453 169.005 343.986V344.123C169.005 345.655 170.205 346.898 171.686 346.898Z" fill="white"/>
<path d="M171.686 358.272H212.11C213.591 358.272 214.792 357.03 214.792 355.497V355.361C214.792 353.828 213.591 352.585 212.11 352.585H171.686C170.205 352.585 169.005 353.828 169.005 355.361V355.497C169.005 357.03 170.205 358.272 171.686 358.272Z" fill="white"/>
<path d="M652.924 533.289L641.152 533.288L635.551 486.289L652.925 486.29L652.924 533.289Z" fill="#9E616A"/>
<path d="M597.231 533.289L585.46 533.288L579.86 486.289L597.234 486.29L597.231 533.289Z" fill="#9E616A"/>
<path d="M597.646 546L561.447 545.998V545.525C561.447 541.657 562.932 537.947 565.574 535.212C568.216 532.477 571.8 530.941 575.537 530.94H575.538L582.15 525.748L594.487 530.941L597.647 530.941L597.646 546Z" fill="#2F2E41"/>
<path d="M654.848 546L618.648 545.998V545.525C618.649 541.657 620.133 537.947 622.776 535.212C625.418 532.477 629.002 530.941 632.738 530.94H632.739L639.352 525.748L651.689 530.941L654.849 530.941L654.848 546Z" fill="#2F2E41"/>
<path d="M585.685 255.134L567.794 367.893L572.663 384.697L566.274 396.597L575.656 501.11L571.848 509.789L582.489 516.582H604.141L605.291 421.965L610.639 408.074V400.418L621.527 342.723L623.532 423.521L626.699 437.434L624.039 447.341L627.515 454.281L636.749 518.644H661.029L659.151 503.67C661.266 502.561 662.965 500.757 663.981 498.54C664.997 496.323 665.273 493.82 664.764 491.423L663.372 484.86L666.54 465.454L672.31 357.191L670.683 269.836L642.28 247.355L585.685 255.134Z" fill="#2F2E41"/>
<path d="M626.699 110.336C639.158 110.336 649.257 99.8826 649.257 86.9871C649.257 74.0916 639.158 63.6377 626.699 63.6377C614.241 63.6377 604.142 74.0916 604.142 86.9871C604.142 99.8826 614.241 110.336 626.699 110.336Z" fill="#9E616A"/>
<path d="M577.413 299.88C578.395 298.83 579.142 297.57 579.602 296.189C580.063 294.808 580.225 293.339 580.077 291.886C579.93 290.433 579.477 289.031 578.749 287.778C578.022 286.526 577.038 285.455 575.867 284.639L584.639 250.302L567.739 256.186L561.999 287.891C560.806 290.018 560.407 292.524 560.879 294.935C561.351 297.346 562.661 299.494 564.561 300.972C566.461 302.449 568.819 303.155 571.188 302.953C573.556 302.752 575.771 301.659 577.413 299.88Z" fill="#9E616A"/>
<path d="M586.645 135.025L583.017 134.246L579.923 136.019C579.923 136.019 571.281 147.946 571.281 158.879C571.281 169.811 560.719 275.164 560.719 275.164L579.923 284.109L595.286 201.616L586.645 135.025Z" fill="#E6E6E6"/>
<path d="M646.454 69.8677C646.454 69.8677 652.354 58.193 639.374 57.1316C639.374 57.1316 628.308 46.7415 617.029 55.2322C617.029 55.2322 610.877 55.2322 607.513 62.4383C607.513 62.4383 602.674 60.5389 601.611 65.6223C601.611 65.6223 598.07 76.2357 601.611 85.7877C605.151 95.3398 606.327 96.4011 606.327 96.4011C606.327 96.4011 600.509 76.3748 614.671 75.3134C628.832 74.2521 644.679 65.0917 645.859 76.7664C647.039 88.4411 648.815 91.3176 648.815 91.3176C648.815 91.3176 660.024 74.6437 646.454 69.8677Z" fill="#2F2E41"/>
<path d="M728.857 396.597C727.154 396.6 725.51 395.951 724.242 394.775L655.974 331.874C654.599 330.603 653.766 328.82 653.659 326.915C653.552 325.01 654.18 323.139 655.404 321.712L699.137 270.859C700.364 269.435 702.087 268.573 703.928 268.462C705.768 268.351 707.576 269.001 708.955 270.268L777.223 333.17C778.6 334.439 779.434 336.223 779.541 338.129C779.648 340.034 779.019 341.906 777.793 343.331L734.06 394.184C733.455 394.893 732.719 395.469 731.897 395.881C731.075 396.294 730.181 396.533 729.269 396.585C729.131 396.594 728.994 396.597 728.857 396.597Z" fill="#6CDDC2"/>
<path d="M728.856 397.06C727.044 397.063 725.295 396.372 723.945 395.121L655.677 332.22C654.213 330.868 653.327 328.969 653.213 326.942C653.099 324.914 653.767 322.922 655.07 321.404L698.803 270.551C700.109 269.036 701.943 268.119 703.902 268.001C705.861 267.883 707.785 268.574 709.252 269.922L777.52 332.824C778.986 334.175 779.873 336.074 779.987 338.102C780.101 340.13 779.432 342.122 778.127 343.64L734.394 394.492C733.749 395.246 732.967 395.86 732.092 396.298C731.216 396.737 730.266 396.992 729.295 397.047C729.148 397.055 729.002 397.06 728.856 397.06ZM704.334 269.837C703.541 269.835 702.758 270.007 702.034 270.343C701.311 270.678 700.665 271.168 700.138 271.781L656.405 322.634C655.417 323.786 654.911 325.297 654.997 326.834C655.083 328.372 655.755 329.812 656.866 330.838L725.134 393.739C725.684 394.246 726.326 394.637 727.022 394.887C727.718 395.138 728.456 395.244 729.191 395.2C729.927 395.155 730.648 394.961 731.311 394.629C731.975 394.296 732.568 393.832 733.058 393.262L776.792 342.409C777.781 341.258 778.289 339.747 778.203 338.209C778.116 336.671 777.443 335.231 776.331 334.207L708.063 271.304C707.037 270.357 705.709 269.834 704.334 269.837Z" fill="#3F3D56"/>
<path d="M753.612 348.437C752.875 348.438 752.163 348.158 751.613 347.65L698.025 298.274C697.729 298.002 697.487 297.673 697.314 297.304C697.14 296.936 697.039 296.536 697.015 296.127C696.992 295.717 697.046 295.307 697.176 294.92C697.306 294.533 697.508 294.176 697.771 293.87C698.035 293.564 698.354 293.314 698.71 293.136C699.067 292.958 699.454 292.854 699.849 292.831C700.245 292.808 700.64 292.866 701.014 293.001C701.388 293.137 701.732 293.348 702.027 293.621L755.615 342.997C756.071 343.417 756.392 343.97 756.537 344.583C756.682 345.197 756.643 345.842 756.426 346.432C756.209 347.022 755.823 347.53 755.321 347.888C754.818 348.246 754.222 348.437 753.612 348.437Z" fill="white"/>
<path d="M743.391 360.322C742.653 360.323 741.942 360.043 741.391 359.535L687.804 310.159C687.509 309.887 687.268 309.558 687.096 309.189C686.924 308.821 686.824 308.422 686.801 308.013C686.778 307.605 686.833 307.196 686.963 306.81C687.093 306.424 687.295 306.068 687.558 305.762C687.82 305.457 688.139 305.208 688.494 305.03C688.85 304.852 689.236 304.748 689.63 304.724C690.025 304.7 690.42 304.757 690.793 304.892C691.166 305.026 691.51 305.235 691.805 305.507L745.393 354.883C745.849 355.303 746.171 355.856 746.316 356.469C746.461 357.083 746.422 357.727 746.205 358.317C745.987 358.907 745.602 359.415 745.099 359.773C744.597 360.131 744.001 360.322 743.391 360.322Z" fill="white"/>
<path d="M733.17 372.209C732.432 372.21 731.72 371.929 731.17 371.421L677.582 322.046C677.286 321.774 677.045 321.445 676.873 321.076C676.7 320.708 676.6 320.308 676.576 319.9C676.553 319.491 676.608 319.082 676.738 318.695C676.868 318.308 677.07 317.952 677.333 317.646C677.596 317.34 677.915 317.091 678.271 316.913C678.627 316.735 679.013 316.631 679.408 316.608C679.803 316.584 680.198 316.641 680.571 316.776C680.945 316.911 681.289 317.121 681.584 317.393L735.171 366.769C735.627 367.189 735.949 367.742 736.094 368.355C736.239 368.969 736.2 369.613 735.983 370.203C735.766 370.794 735.381 371.301 734.878 371.66C734.376 372.018 733.78 372.209 733.17 372.209Z" fill="white"/>
<path d="M671.887 301.907C671.2 300.631 670.791 299.214 670.689 297.757C670.588 296.3 670.796 294.837 671.3 293.472C671.803 292.107 672.59 290.873 673.604 289.857C674.618 288.841 675.835 288.067 677.17 287.59L677.228 252.074L692.097 262.26L689.762 294.426C690.387 296.799 690.149 299.327 689.094 301.531C688.038 303.735 686.238 305.462 684.035 306.384C681.832 307.306 679.378 307.36 677.139 306.535C674.9 305.709 673.032 304.063 671.887 301.907Z" fill="#9E616A"/>
<path d="M673.262 144.758L679.905 138.13L684.784 141.776C684.784 141.776 689.585 147.739 693.426 165.629C697.267 183.519 693.426 281.915 693.426 281.915L672.302 278.933L675.182 227.251L666.541 183.519L673.262 144.758Z" fill="#E6E6E6"/>
<path d="M683.071 139.747L660.691 128.682L645.497 114.094L617.789 113.879L608.852 125.906L585.256 134.203L589.188 218.42L586.507 224.896C586.507 224.896 588.375 226.643 589.229 227.62C590.082 228.597 588.049 236.775 588.049 236.775L586.903 245.673L590.082 248.025L585.949 253.078L584.923 261.043C584.923 261.043 657.065 242.483 670.696 273.229C671.416 274.854 669.643 258.978 669.643 258.978L667.869 247.355L669.629 236.923L672.31 234.148L667.813 229.493L670.696 207.406L683.071 139.747Z" fill="#3F3D56"/>
<path d="M175.547 326.45C176.103 324.99 176.342 323.422 176.249 321.857C176.155 320.291 175.731 318.765 175.007 317.387C174.282 316.009 173.274 314.813 172.055 313.881C170.835 312.95 169.433 312.307 167.947 311.998L162.975 274.211L148.561 287.254L155.492 321.136C155.155 323.755 155.757 326.41 157.185 328.599C158.613 330.788 160.767 332.359 163.239 333.014C165.711 333.669 168.33 333.362 170.598 332.153C172.867 330.943 174.627 328.914 175.547 326.45Z" fill="#FFB8B8"/>
<path d="M119.073 159.058L115.166 159.832L112.805 162.91C112.805 162.91 108.984 178.421 113.336 189.261C117.689 200.101 149.156 309.064 149.156 309.064L171.757 309.742L154.151 221.397L119.073 159.058Z" fill="#3F3D56"/>
<path d="M208.176 320.908C207.135 319.767 206.348 318.405 205.87 316.916C205.393 315.427 205.237 313.848 205.413 312.29C205.589 310.731 206.093 309.232 206.889 307.897C207.686 306.562 208.755 305.425 210.022 304.564L201.024 267.584L219.097 274.123L224.871 308.237C226.127 310.536 226.524 313.233 225.988 315.815C225.451 318.397 224.018 320.686 221.961 322.248C219.903 323.81 217.363 324.536 214.822 324.289C212.282 324.042 209.917 322.839 208.176 320.908Z" fill="#FFB8B8"/>
<path d="M200.28 143.791L204.184 143.001L207.484 144.946C207.484 144.946 216.616 157.864 216.483 169.602C216.349 181.34 226.401 294.589 226.401 294.589L205.674 303.942L190.188 215.172L200.28 143.791Z" fill="#3F3D56"/>
</g>
<defs>
<clipPath id="clip0_221_10">
<rect width="780" height="546" fill="white"/>
</clipPath>
</defs>
</svg>
