<svg width="232" height="190" viewBox="0 0 232 190" fill="none" xmlns="http://www.w3.org/2000/svg">
<g clip-path="url(#clip0_189_767)">
<path d="M67.9811 158.615L67.9565 154.282L67.5911 89.9926L67.5774 87.5868L67.3763 52.203C64.3578 50.2164 61.2062 48.4598 57.9462 46.9469C45.1742 41.0328 29.9879 38.5941 17.4131 44.9505C10.6998 48.4757 5.50608 54.5202 2.86996 61.8759C2.79572 62.0703 2.72725 62.2586 2.66457 62.4468C0.567394 68.7018 0.582833 75.4951 3.65298 81.3603C9.14902 91.9011 21.4401 95.7941 32.3567 99.5138C43.2675 103.234 55.3681 109.291 58.0887 120.952C55.7973 118.007 52.7973 115.753 49.397 114.422C45.9967 113.091 42.3187 112.73 38.741 113.377C35.1634 114.025 31.8151 115.656 29.0402 118.105C26.2653 120.553 24.164 123.73 22.9522 127.309C22.7527 127.892 22.5706 128.481 22.4117 129.076C22.0317 130.506 21.803 131.974 21.7295 133.456C21.1969 144.761 29.484 154.891 39.3168 159.635C48.2082 163.919 58.1868 164.736 68.0183 165.147L67.9811 158.615Z" fill="#6CDDC2"/>
<path d="M67.9566 154.282L67.9813 158.615C65.7797 152.714 62.4569 147.34 58.2137 142.819C53.9706 138.298 48.895 134.723 43.2936 132.31C36.6737 129.527 29.5187 128.419 22.4116 129.076C22.5707 128.482 22.7527 127.893 22.9523 127.31C25.7134 127.104 28.4864 127.148 31.2404 127.44C41.0689 128.487 50.3144 132.812 57.6102 139.778C61.8875 143.902 65.3957 148.82 67.9566 154.282Z" fill="white"/>
<path d="M67.5774 87.5868L67.5911 89.9926C65.2865 87.6707 62.8009 85.5537 60.16 83.6635C51.9548 77.7574 42.6858 73.2942 33.2781 69.9529C23.6361 66.5111 13.6275 64.3163 3.47556 63.4175C3.24702 63.3956 3.0353 63.2825 2.88428 63.1018C2.73327 62.9211 2.65453 62.6866 2.6644 62.4468C2.6581 62.2356 2.7319 62.0304 2.86972 61.8759C2.94186 61.8039 3.02924 61.7506 3.12475 61.7206C3.22027 61.6905 3.32122 61.6844 3.41941 61.7028C4.67193 61.8101 5.91859 61.9297 7.17105 62.0795C17.5631 63.3059 27.7689 65.8786 37.5538 69.7385C46.9985 73.4492 56.3389 78.2392 64.3214 84.7467C65.4451 85.6426 66.5343 86.5873 67.5774 87.5868Z" fill="white"/>
<path d="M13.277 34.1153C15.1974 34.1153 16.7542 32.4874 16.7542 30.4793C16.7542 28.4712 15.1974 26.8433 13.277 26.8433C11.3566 26.8433 9.7998 28.4712 9.7998 30.4793C9.7998 32.4874 11.3566 34.1153 13.277 34.1153Z" fill="#6CDDC2"/>
<path d="M155.827 45.5604H154.834V17.1121C154.834 14.9499 154.427 12.8088 153.636 10.8112C152.844 8.81353 151.684 6.99843 150.222 5.4695C148.76 3.94057 147.024 2.72776 145.114 1.90031C143.203 1.07286 141.156 0.646975 139.088 0.646973H81.4487C77.2726 0.646968 73.2675 2.38168 70.3146 5.46948C67.3616 8.55728 65.7026 12.7452 65.7026 17.1121V173.182C65.7026 177.549 67.3616 181.737 70.3145 184.824C73.2675 187.912 77.2725 189.647 81.4487 189.647H139.088C143.264 189.647 147.269 187.912 150.222 184.824C153.175 181.737 154.834 177.549 154.834 173.182V65.8104H155.827V45.5604Z" fill="#3F3D56"/>
<path d="M151.483 17.2272V173.069C151.483 173.297 151.478 173.521 151.464 173.746C151.299 176.886 149.99 179.84 147.806 182C145.622 184.161 142.729 185.365 139.722 185.364H81.8067C78.7928 185.365 75.8937 184.155 73.7085 181.984C71.5234 179.814 70.2191 176.848 70.0652 173.701C70.0543 173.493 70.0488 173.282 70.0488 173.069V17.2272C70.0485 13.966 71.2871 10.8383 73.4921 8.53203C75.6971 6.22577 78.6879 4.92989 81.8067 4.92944H88.8348C88.4887 5.81643 88.3566 6.77877 88.45 7.73173C88.5433 8.68469 88.8593 9.59903 89.3702 10.3942C89.881 11.1894 90.571 11.8411 91.3794 12.2918C92.1877 12.7425 93.0897 12.9785 94.0058 12.9789H127.028C127.944 12.9784 128.846 12.7424 129.654 12.2916C130.462 11.8409 131.152 11.1892 131.663 10.3941C132.174 9.5989 132.49 8.6846 132.583 7.73167C132.677 6.77874 132.545 5.81642 132.199 4.92944H139.722C142.841 4.92977 145.833 6.22552 148.038 8.53173C150.244 10.8379 151.483 13.9657 151.483 17.2272Z" fill="#6CDDC2"/>
<path d="M150.414 134.758H71.1167C70.8381 134.757 70.571 134.641 70.3741 134.436C70.1771 134.23 70.0663 133.95 70.0659 133.659V31.9306C70.0663 31.6393 70.1771 31.3601 70.3741 31.1541C70.571 30.9482 70.8381 30.8323 71.1167 30.832H150.414C150.692 30.8323 150.959 30.9482 151.156 31.1541C151.353 31.3601 151.464 31.6393 151.464 31.9306V133.659C151.464 133.95 151.353 134.23 151.156 134.436C150.959 134.641 150.692 134.757 150.414 134.758Z" fill="#6CDDC2"/>
<path d="M144.594 37.9302H77.0989C76.8202 37.9304 76.5529 38.0462 76.3559 38.2523C76.1588 38.4584 76.048 38.7378 76.0479 39.0293V112.534C76.0486 112.825 76.1596 113.104 76.3567 113.309C76.5537 113.515 76.8206 113.63 77.0989 113.63H144.594C144.872 113.63 145.139 113.515 145.336 113.309C145.533 113.104 145.644 112.825 145.645 112.534V39.0293C145.645 38.7378 145.534 38.4584 145.337 38.2523C145.14 38.0462 144.873 37.9304 144.594 37.9302Z" fill="white"/>
<path d="M75.9281 27.1273C77.432 27.1273 78.6511 25.8525 78.6511 24.28C78.6511 22.7074 77.432 21.4326 75.9281 21.4326C74.4242 21.4326 73.2051 22.7074 73.2051 24.28C73.2051 25.8525 74.4242 27.1273 75.9281 27.1273Z" fill="#2C2C2C"/>
<path d="M88.88 117.255C84.2303 109.424 85.8325 99.4195 86.6152 90.2384C87.7842 76.4639 86.7293 62.5818 83.4946 49.1731C87.3475 53.672 89.8897 59.2292 90.8215 65.1892C91.5891 70.1591 91.2098 75.2722 92.0793 80.2237C93.9438 90.8411 101.452 100.416 100.29 111.143C100.033 113.513 99.1693 116.064 97.1563 117.187C94.8839 118.455 92.1104 117.446 89.7268 116.426" fill="#2C2C2C"/>
<path d="M81.0328 120.505C80.5236 119.97 79.832 119.668 79.1101 119.666C78.3882 119.664 77.6952 119.962 77.1834 120.495C76.6717 121.027 76.3832 121.751 76.3814 122.505C76.3795 123.26 76.6646 123.985 77.1738 124.52L77.1831 124.53L81.0328 128.555L84.8825 124.53C85.3907 123.996 85.6755 123.272 85.6745 122.519C85.6735 121.765 85.3868 121.043 84.8772 120.51C84.3675 119.977 83.6766 119.677 82.956 119.676C82.2353 119.676 81.5437 119.973 81.0328 120.505Z" fill="#FA0D1B"/>
<path d="M93.0138 120.505C92.5046 119.97 91.813 119.668 91.0911 119.666C90.3692 119.664 89.6761 119.962 89.1644 120.495C88.6526 121.027 88.3641 121.751 88.3623 122.505C88.3605 123.26 88.6455 123.985 89.1547 124.52L89.1641 124.53L93.0138 128.555L96.8634 124.53C97.3717 123.996 97.6565 123.272 97.6555 122.519C97.6545 121.765 97.3677 121.043 96.8581 120.51C96.3485 119.977 95.6576 119.677 94.9369 119.676C94.2162 119.676 93.5246 119.973 93.0138 120.505Z" fill="#FA0D1B"/>
<path d="M104.995 120.505C104.486 119.97 103.794 119.668 103.073 119.666C102.351 119.664 101.658 119.962 101.146 120.495C100.634 121.027 100.346 121.751 100.344 122.505C100.342 123.26 100.627 123.985 101.136 124.52L101.146 124.53L104.995 128.555L108.845 124.53C109.353 123.996 109.638 123.272 109.637 122.519C109.636 121.765 109.349 121.043 108.84 120.51C108.33 119.977 107.639 119.677 106.918 119.676C106.198 119.676 105.506 119.973 104.995 120.505Z" fill="#FA0D1B"/>
<path d="M126.159 26.5132H87.7603C87.4842 26.5135 87.2107 26.4569 86.9555 26.3466C86.7003 26.2364 86.4684 26.0746 86.273 25.8705C86.0776 25.6665 85.9227 25.4242 85.8169 25.1574C85.7112 24.8907 85.6567 24.6048 85.6567 24.316C85.6567 24.0273 85.7112 23.7414 85.8169 23.4747C85.9227 23.2079 86.0776 22.9656 86.273 22.7615C86.4684 22.5575 86.7003 22.3957 86.9555 22.2854C87.2107 22.1752 87.4842 22.1186 87.7603 22.1189H126.159C126.435 22.1186 126.708 22.1752 126.964 22.2854C127.219 22.3957 127.451 22.5575 127.646 22.7615C127.841 22.9656 127.996 23.2079 128.102 23.4747C128.208 23.7414 128.262 24.0273 128.262 24.316C128.262 24.6048 128.208 24.8907 128.102 25.1574C127.996 25.4242 127.841 25.6665 127.646 25.8705C127.451 26.0746 127.219 26.2364 126.964 26.3466C126.708 26.4569 126.435 26.5135 126.159 26.5132Z" fill="#2C2C2C"/>
<path d="M150.413 153.838H71.1165C70.8378 153.838 70.5705 153.954 70.3735 154.16C70.1764 154.366 70.0656 154.645 70.0654 154.937V173.701C70.2193 176.848 71.5236 179.814 73.7088 181.984C75.894 184.155 78.793 185.364 81.8069 185.364H139.723C142.729 185.365 145.622 184.161 147.806 182C149.99 179.839 151.299 176.886 151.464 173.746V154.937C151.464 154.645 151.353 154.366 151.156 154.16C150.959 153.954 150.692 153.838 150.413 153.838Z" fill="#6CDDC2"/>
<path d="M144.594 160.936H77.0989C76.8202 160.936 76.5529 161.052 76.3559 161.258C76.1588 161.464 76.048 161.744 76.0479 162.035V183.789C77.8056 184.824 79.7895 185.367 81.807 185.364H139.723C141.804 185.367 143.848 184.79 145.645 183.692V162.035C145.645 161.744 145.534 161.464 145.337 161.258C145.14 161.052 144.873 160.936 144.594 160.936Z" fill="#6CDDC2"/>
<path d="M75.9281 150.133C77.432 150.133 78.6511 148.858 78.6511 147.286C78.6511 145.713 77.432 144.438 75.9281 144.438C74.4242 144.438 73.2051 145.713 73.2051 147.286C73.2051 148.858 74.4242 150.133 75.9281 150.133Z" fill="#2C2C2C"/>
<path d="M126.159 149.519H87.7603C87.4842 149.519 87.2107 149.463 86.9555 149.352C86.7003 149.242 86.4684 149.08 86.273 148.876C86.0776 148.672 85.9227 148.43 85.8169 148.163C85.7112 147.896 85.6567 147.61 85.6567 147.322C85.6567 147.033 85.7112 146.747 85.8169 146.48C85.9227 146.214 86.0776 145.971 86.273 145.767C86.4684 145.563 86.7003 145.401 86.9555 145.291C87.2107 145.181 87.4842 145.124 87.7603 145.125H126.159C126.435 145.124 126.708 145.181 126.964 145.291C127.219 145.401 127.451 145.563 127.646 145.767C127.841 145.971 127.996 146.214 128.102 146.48C128.208 146.747 128.262 147.033 128.262 147.322C128.262 147.61 128.208 147.896 128.102 148.163C127.996 148.43 127.841 148.672 127.646 148.876C127.451 149.08 127.219 149.242 126.964 149.352C126.708 149.463 126.435 149.519 126.159 149.519Z" fill="#2C2C2C"/>
<path d="M104.454 185.364H84.5029C86.5343 181.184 90.2839 177.778 94.7033 177.599C95.3693 177.573 96.036 177.624 96.691 177.753C96.966 177.804 97.2356 177.872 97.5053 177.946C99.2004 178.402 100.744 179.334 101.969 180.642C103.194 181.949 104.053 183.582 104.454 185.364Z" fill="black"/>
<path d="M136.365 185.364H109.274C109.69 184.064 110.044 182.743 110.333 181.406C111.55 175.907 112.789 169.734 117.28 166.608C119.779 164.865 122.821 164.581 125.704 165.349C125.792 165.372 125.882 165.398 125.969 165.426C129.37 166.413 132.29 168.706 134.143 171.847C136.439 175.873 136.951 180.663 136.365 185.364Z" fill="black"/>
<path d="M97.7856 182.007C97.7726 183.132 97.677 184.254 97.4997 185.364H96.7208C97.1303 182.844 97.1201 180.269 96.6909 177.753C96.9659 177.804 97.2355 177.872 97.5052 177.946C97.7115 179.289 97.8053 180.647 97.7856 182.007Z" fill="white"/>
<path d="M126.069 165.688C126.072 166.303 126.069 166.921 126.053 167.539C125.933 172.676 125.201 177.777 123.875 182.724C123.641 183.607 123.387 184.487 123.115 185.364H122.314C122.805 183.803 123.232 182.223 123.602 180.64C124.748 175.781 125.318 170.793 125.302 165.788C125.302 165.675 125.344 165.566 125.419 165.485C125.494 165.403 125.596 165.355 125.705 165.35C125.799 165.339 125.893 165.366 125.969 165.426C126.004 165.459 126.031 165.499 126.049 165.545C126.066 165.59 126.073 165.64 126.069 165.688Z" fill="white"/>
<path d="M140.45 170.938C141.353 170.938 142.084 170.173 142.084 169.229C142.084 168.286 141.353 167.521 140.45 167.521C139.548 167.521 138.816 168.286 138.816 169.229C138.816 170.173 139.548 170.938 140.45 170.938Z" fill="black"/>
<path d="M101.289 46.2611C102.191 46.2611 102.922 45.4962 102.922 44.5527C102.922 43.6091 102.191 42.8442 101.289 42.8442C100.386 42.8442 99.6548 43.6091 99.6548 44.5527C99.6548 45.4962 100.386 46.2611 101.289 46.2611Z" fill="white"/>
<path d="M131.514 56.2266C132.416 56.2266 133.147 55.4618 133.147 54.5182C133.147 53.5747 132.416 52.8098 131.514 52.8098C130.611 52.8098 129.88 53.5747 129.88 54.5182C129.88 55.4618 130.611 56.2266 131.514 56.2266Z" fill="#E4E4E4"/>
<path d="M130.697 90.9644C131.599 90.9644 132.331 90.1996 132.331 89.256C132.331 88.3125 131.599 87.5476 130.697 87.5476C129.794 87.5476 129.063 88.3125 129.063 89.256C129.063 90.1996 129.794 90.9644 130.697 90.9644Z" fill="#E4E4E4"/>
<path d="M123.466 107.246L122.361 103.545C122.171 102.683 121.93 101.835 121.639 101.005C120.392 97.0641 117.653 89.1171 114.426 80.8142L110.63 76.845L109.579 76.1275L108.585 75.4526L108.158 75.8655L104.081 79.8005L104.051 80.0597L101.388 103.727C101.388 103.727 101.38 103.792 101.366 103.921C101.336 104.197 101.274 104.76 101.192 105.566C101.037 107.081 100.786 109.726 100.539 113.061H125.201L123.466 107.246Z" fill="#3F3D56"/>
<path opacity="0.2" d="M105.989 90.4133L104.954 97.1658L111.958 100.187L105.989 90.4133Z" fill="black"/>
<path d="M118.529 60.1995C117.257 58.7459 115.593 57.7285 113.758 57.2806C111.923 56.8326 110.001 56.9751 108.244 57.6893C106.487 58.4035 104.978 59.6561 103.914 61.2828C102.85 62.9095 102.281 64.8345 102.281 66.8053V74.1031C102.281 74.4519 102.414 74.7864 102.65 75.0331C102.886 75.2798 103.206 75.4184 103.539 75.4186H119.733C120.066 75.4179 120.385 75.2789 120.621 75.0323C120.856 74.7857 120.988 74.4515 120.988 74.1031V66.8053C120.989 64.359 120.112 62.0014 118.529 60.1995Z" fill="#2F2E41"/>
<path d="M113.423 74.9777C117.21 74.9777 120.281 71.7674 120.281 67.8072C120.281 63.8471 117.21 60.6367 113.423 60.6367C109.636 60.6367 106.566 63.8471 106.566 67.8072C106.566 71.7674 109.636 74.9777 113.423 74.9777Z" fill="#FFB8B8"/>
<path d="M118.529 60.1995C117.662 59.8373 116.737 59.6518 115.804 59.6528H114.407C113.23 59.653 112.071 59.9468 111.025 60.5099C109.98 61.073 109.078 61.8891 108.394 62.8903C108.348 62.9529 108.307 63.0184 108.266 63.0811C107.444 64.3532 107.006 65.8539 107.008 67.3891V67.5343H109.957L110.965 64.5873L111.166 67.5343H112.691L113.198 66.048L113.298 67.5343C116.487 68.7667 119.796 68.6877 123.202 67.5343V67.3891C123.2 65.8395 122.754 64.3259 121.921 63.0442C121.088 61.7625 119.907 60.7716 118.529 60.1995Z" fill="#2F2E41"/>
<path d="M114.352 74.9117C114.346 74.895 114.339 74.8789 114.33 74.8633C113.407 73.0239 112.25 70.2078 112.185 67.5342C112.146 65.9368 112.5 64.3878 113.53 63.1322L113.726 62.8901H105.745V75.4214L108.157 75.8655L109.579 76.1275L112.996 76.7596C113.07 76.7733 113.144 76.78 113.219 76.7795C113.417 76.7793 113.612 76.7302 113.788 76.6362C113.964 76.5422 114.116 76.4059 114.232 76.2386C114.4 76.0023 114.485 75.7126 114.472 75.4185C114.467 75.2426 114.426 75.0698 114.352 74.9117Z" fill="#2F2E41"/>
<path opacity="0.2" d="M101.555 103.398C103.38 105.607 105.855 107.12 108.592 107.699C111.329 108.277 114.172 107.889 116.675 106.593L118.167 105.821L101.555 103.398Z" fill="black"/>
<path d="M178.888 124.989C178.911 124.496 179.036 124.015 179.255 123.579C179.475 123.143 179.783 122.762 180.158 122.464C180.533 122.166 180.967 121.958 181.427 121.853C181.888 121.749 182.365 121.752 182.824 121.861L187.087 115.579L191.37 117.357L185.231 126.14C185.004 126.935 184.506 127.616 183.831 128.053C183.157 128.489 182.352 128.652 181.57 128.51C180.789 128.368 180.084 127.931 179.59 127.282C179.095 126.633 178.846 125.817 178.888 124.989Z" fill="#A0616A"/>
<path d="M183.565 119.586L191.145 106.256L188.057 97.6448L192.263 85.9165L192.418 85.9861C192.52 86.0316 194.91 87.1468 195.264 91.1403L200.097 107.024L187.198 124.523L183.565 119.586Z" fill="#3F3D56"/>
<path d="M142.4 70.5804C142.867 70.6417 143.316 70.8095 143.715 71.0719C144.114 71.3343 144.453 71.685 144.708 72.0993C144.964 72.5136 145.129 72.9813 145.193 73.4696C145.256 73.9579 145.217 74.4548 145.077 74.9254L150.737 79.8556L148.711 84.1832L140.811 77.1034C140.071 76.8054 139.46 76.2336 139.096 75.4965C138.732 74.7594 138.639 73.9082 138.835 73.1042C139.03 72.3001 139.501 71.5991 140.159 71.134C140.816 70.6688 141.613 70.4718 142.4 70.5804Z" fill="#A0616A"/>
<path d="M147.189 75.8735L159.313 84.8063L167.762 82.2526L178.62 87.5442L178.541 87.7005C178.49 87.803 177.242 90.2083 173.407 90.2688L157.888 94.0796L142.201 79.2784L147.189 75.8735Z" fill="#3F3D56"/>
<path d="M169.373 184.5L165.159 184.5L163.153 167.5L169.374 167.501L169.373 184.5Z" fill="#A0616A"/>
<path d="M160.875 183.24H170.277V188.592H157.03V187.261C157.03 186.194 157.435 185.172 158.156 184.418C158.877 183.664 159.855 183.24 160.875 183.24Z" fill="#2F2E41"/>
<path d="M186.219 184.5L182.005 184.5L180 167.5L186.22 167.501L186.219 184.5Z" fill="#A0616A"/>
<path d="M177.721 183.24H187.123V188.592H173.876V187.261C173.876 186.194 174.281 185.172 175.002 184.418C175.723 183.664 176.701 183.24 177.721 183.24Z" fill="#2F2E41"/>
<path d="M187.718 122.449L187.375 147.614L187.031 180.687L179.467 179.968L175.686 134.313L170.873 179.968H163.064L162.278 133.953L165.028 123.888L187.718 122.449Z" fill="#2F2E41"/>
<path d="M164.274 124.041L163.122 123.989L168.474 93.1592L166.283 83.8409C166.169 83.356 166.229 82.8444 166.452 82.4028C166.675 81.9613 167.044 81.6205 167.491 81.4451L171.434 79.8992L172.827 75.8936L183.817 77.1319L184.088 80.2624C185.278 80.6618 195.086 84.0771 194.409 87.9685C193.741 91.8095 189.798 103.894 189.597 104.506L188.907 121.837L188.822 121.881C188.72 121.935 181.144 125.829 172.915 125.829C170.017 125.829 167.036 125.345 164.274 124.041Z" fill="#3F3D56"/>
<path d="M184.834 69.6058C186.931 65.5961 185.521 60.5686 181.687 58.3766C177.852 56.1847 173.044 57.6584 170.948 61.6681C168.852 65.6779 170.261 70.7054 174.096 72.8973C177.93 75.0893 182.738 73.6156 184.834 69.6058Z" fill="#A0616A"/>
<path d="M184.301 73.6468C182.793 75.3266 179.992 74.4249 179.796 72.1301C179.78 71.952 179.781 71.7726 179.799 71.5947C179.901 70.5782 180.462 69.6554 180.328 68.5822C180.297 68.3151 180.202 68.0605 180.051 67.8426C178.849 66.1599 176.029 68.5952 174.894 67.072C174.199 66.1379 175.016 64.6673 174.483 63.6234C173.778 62.2456 171.692 62.9253 170.384 62.1707C168.928 61.3311 169.015 58.9958 169.974 57.5753C171.142 55.843 173.191 54.9187 175.214 54.7854C177.238 54.6522 179.247 55.2241 181.136 55.9939C183.282 56.8685 185.41 58.0772 186.731 60.0506C188.337 62.4504 188.492 65.6767 187.689 68.4829C187.2 70.1899 185.532 72.2752 184.301 73.6468Z" fill="#2F2E41"/>
<path d="M231.728 189.142H0.2723C0.200082 189.142 0.130821 189.112 0.0797548 189.059C0.0286885 189.005 0 188.933 0 188.857C0 188.782 0.0286885 188.709 0.0797548 188.656C0.130821 188.602 0.200082 188.573 0.2723 188.573H231.728C231.8 188.573 231.869 188.602 231.92 188.656C231.971 188.709 232 188.782 232 188.857C232 188.933 231.971 189.005 231.92 189.059C231.869 189.112 231.8 189.142 231.728 189.142Z" fill="#3F3D56"/>
<path d="M126.894 106.58H122.653C122.517 106.581 122.386 106.528 122.285 106.433C122.184 106.337 122.121 106.205 122.109 106.064L121.26 96.9661H128.288L127.439 106.064C127.426 106.205 127.363 106.337 127.262 106.433C127.161 106.528 127.03 106.581 126.894 106.58Z" fill="white"/>
<path d="M128.276 98.1106H121.271C121.126 98.1104 120.987 98.05 120.884 97.9428C120.782 97.8355 120.724 97.69 120.724 97.5383V96.1648C120.724 96.0131 120.782 95.8676 120.884 95.7603C120.987 95.6531 121.126 95.5927 121.271 95.5925H128.276C128.421 95.5927 128.56 95.6531 128.663 95.7603C128.766 95.8676 128.823 96.0131 128.824 96.1648V97.5383C128.823 97.69 128.766 97.8355 128.663 97.9428C128.56 98.05 128.421 98.1104 128.276 98.1106Z" fill="#3F3D56"/>
<path d="M125.416 101.747C125.11 101.388 124.733 101.103 124.31 100.913C123.888 100.722 123.431 100.631 122.971 100.646C122.511 100.66 122.06 100.78 121.649 100.997C121.238 101.213 120.878 101.521 120.593 101.899L113.669 99.8669L111.462 103.965L121.278 106.692C121.917 107.15 122.694 107.347 123.463 107.245C124.231 107.144 124.938 106.751 125.448 106.142C125.958 105.532 126.236 104.748 126.231 103.938C126.225 103.128 125.935 102.349 125.416 101.747Z" fill="#FFB8B8"/>
<path d="M114.159 99.5244L110.872 97.3347L109.935 96.8735L105.701 94.7864C105.826 94.3365 106.186 92.9925 106.526 91.2898C107.321 87.3063 107.999 81.3582 105.263 80.3161C104.875 80.1628 104.465 80.0763 104.051 80.0598C103.496 80.0386 102.946 80.1702 102.455 80.4414C100.405 81.5604 99.5906 84.7096 99.5607 84.8263L97.0256 92.1013C96.7915 92.4373 94.3816 95.9281 94.771 98.5135C94.82 98.8849 94.942 99.2416 95.1295 99.5612C95.317 99.8807 95.5658 100.156 95.8602 100.37C97.6149 101.685 99.4546 102.871 101.366 103.921C101.81 104.16 102.244 104.381 102.668 104.584C105.042 105.717 107.136 106.295 108.895 106.295C109.47 106.3 110.044 106.23 110.602 106.088L117.435 105.925L117.478 105.72L117.494 105.64L118.401 101.256L118.657 100.014L114.159 99.5244Z" fill="#3F3D56"/>
</g>
<defs>
<clipPath id="clip0_189_767">
<rect width="232" height="189" fill="white" transform="translate(0 0.646973)"/>
</clipPath>
</defs>
</svg>
