<svg width="600" height="297" viewBox="0 0 600 297" fill="none" xmlns="http://www.w3.org/2000/svg">
<g clip-path="url(#clip0_221_485)">
<path d="M197.592 296.248C179.487 296.248 161.41 295.929 143.359 295.29C117.568 294.378 90.8975 293.435 66.1087 279.893C48.7678 270.421 33.4098 255.224 21.6954 235.944C13.8657 222.876 8.12461 208.699 4.6738 193.911C-1.76328 166.987 -1.54402 138.935 5.31313 112.111C7.71614 102.915 11.0289 93.9725 15.2037 85.4128C33.2812 48.5416 66.2532 23.791 105.666 17.5078C105.991 17.4661 106.32 17.4592 106.647 17.4871C106.825 17.4965 107.001 17.5065 107.181 17.499L107.413 17.4264C108.008 17.2229 108.618 17.0686 109.239 16.965C170.023 8.05223 234.281 26.0859 295.061 69.1151C342.056 102.39 404.338 120.307 485.465 123.892L486.617 123.952C509.201 125.23 531.046 134.4 549.794 150.474C568.299 166.338 582.193 187.504 589.973 211.684C590.93 214.632 591.807 217.701 592.58 220.805C593.299 223.689 593.248 226.708 592.432 229.567C591.616 232.426 590.063 235.029 587.923 237.121V237.127L587.721 237.332C587.234 237.808 586.722 238.265 586.199 238.69L585.584 239.19C580.399 243.396 576.305 246.719 571.404 249.3C568.135 251.009 564.659 252.302 561.059 253.147C541.289 257.894 521.212 262.296 501.387 266.23C462.884 273.876 423.367 280.184 383.933 284.977C322.112 292.485 259.881 296.249 197.592 296.248ZM106.186 18.793C106.065 18.7919 105.944 18.8 105.824 18.8172C66.7805 25.0417 34.1206 49.5493 16.2223 86.0555C12.0887 94.5304 8.80874 103.384 6.42962 112.49C-0.365052 139.075 -0.58158 166.878 5.79825 193.563C9.21528 208.21 14.9007 222.251 22.6548 235.194C34.2546 254.285 49.4555 269.33 66.6146 278.702C91.1809 292.122 117.725 293.061 143.396 293.969C223.684 296.794 304.073 293.348 383.809 283.663C423.217 278.872 462.708 272.569 501.186 264.927C520.998 260.996 541.06 256.598 560.817 251.854C564.33 251.03 567.723 249.769 570.913 248.101C575.715 245.572 579.771 242.281 584.906 238.114L585.521 237.616C585.971 237.25 586.412 236.859 586.835 236.452L586.956 236.327C591.176 232.138 592.817 226.611 591.458 221.164V221.163C590.694 218.093 589.826 215.057 588.879 212.139C572.984 162.743 531.866 127.835 486.561 125.272L485.416 125.213C448.358 123.575 415.929 119.038 386.281 111.341C350.888 102.154 319.99 88.324 294.444 70.2361C233.896 27.3718 169.906 9.40523 109.387 18.2757C108.822 18.3718 108.266 18.5138 107.724 18.7004L107.306 18.8156C107.069 18.826 106.831 18.8232 106.594 18.8072C106.454 18.8001 106.319 18.793 106.186 18.793Z" fill="black"/>
<path d="M187.415 96.521C185.739 94.9372 184.025 86.105 181.885 85.2083C183.485 88.6901 182.323 89.6119 182.315 93.4331C182.335 95.6028 182.078 97.7664 181.549 99.8729H145.301V72.0102C145.301 69.5067 145.802 67.0277 146.774 64.7147C147.747 62.4017 149.173 60.3001 150.97 58.5298C152.767 56.7596 154.901 55.3553 157.25 54.3973C159.598 53.4393 162.115 52.9462 164.657 52.9463C165.627 52.9649 166.591 53.1039 167.526 53.36C170.641 54.1885 173.481 55.8094 175.76 58.06C178.038 60.3107 179.676 63.112 180.509 66.183C183.272 76.1312 187.667 92.6907 187.415 96.521Z" fill="#2F2E41"/>
<path d="M147.429 130.797L147.446 109.08L134.485 110.221L139.059 123.918L136.919 158.346C135.88 158.575 134.932 159.097 134.19 159.849C133.448 160.6 132.943 161.547 132.738 162.576C132.533 163.604 132.637 164.669 133.036 165.641C133.435 166.612 134.112 167.449 134.985 168.048C135.858 168.647 136.89 168.983 137.953 169.014C139.017 169.046 140.067 168.772 140.975 168.226C141.884 167.681 142.611 166.886 143.069 165.94C143.527 164.994 143.696 163.937 143.554 162.898L147.429 130.797Z" fill="#FFB6B6"/>
<path d="M172.936 285.989L178.172 285.989L180.663 266.096H172.935L172.936 285.989Z" fill="#FFB6B6"/>
<path d="M171.162 283.446L179.44 282.959V286.452L187.31 291.805C187.698 292.07 187.991 292.449 188.145 292.889C188.299 293.329 188.307 293.806 188.166 294.25C188.025 294.694 187.744 295.083 187.364 295.358C186.983 295.634 186.523 295.783 186.051 295.783H176.196L174.498 292.328L173.834 295.783H170.119L171.162 283.446Z" fill="#2F2E41"/>
<path d="M142.658 285.989L147.895 285.989L150.386 266.096H142.658L142.658 285.989Z" fill="#FFB6B6"/>
<path d="M140.885 283.446L149.163 282.959V286.452L157.032 291.805C157.421 292.07 157.714 292.449 157.868 292.889C158.022 293.329 158.029 293.806 157.889 294.25C157.748 294.694 157.467 295.083 157.087 295.358C156.706 295.634 156.246 295.783 155.774 295.783H145.919L144.22 292.328L143.557 295.783H139.841L140.885 283.446Z" fill="#2F2E41"/>
<path d="M168.273 85.627L157.425 85.8365L149.768 93.7972L143.629 94.684C140.852 95.0852 138.299 96.4129 136.397 98.4454C134.495 100.478 133.358 103.092 133.178 105.851L134.241 111.604H140.622L144.313 132.952C142.878 136.554 142.781 139.397 145.727 140.514L154.873 157.483L181.885 145.542C183.255 143.223 183.694 140.893 182.294 138.627L184.225 105.948H190.718C190.718 99.8358 188.619 94.6832 182.452 94.0031C180.003 93.742 177.542 93.6034 175.079 93.5877L168.273 85.627Z" fill="#E6E6E6"/>
<path d="M181.885 145.543C181.885 145.543 155.511 150.151 145.727 140.515C145.727 140.515 144.733 142.176 143.237 144.93C142.806 145.722 141.975 146.259 141.473 147.218C141.016 148.091 139.843 149.163 139.346 150.152C138.946 150.947 139.587 151.987 139.171 152.847C134.161 163.198 128.307 177.8 129.562 187.441C130.371 193.659 132.043 208.127 133.803 223.667C133.941 224.881 132.827 226.44 132.965 227.664C133.095 228.818 134.478 229.636 134.608 230.793C134.695 231.56 133.729 232.344 133.816 233.111C133.91 233.952 135.057 234.778 135.151 235.616C137.563 257.072 139.771 277.105 139.771 277.105H152.108L154.435 231.353L152.533 214.675L157 180.947L163.168 213L163.961 231.039L170.48 277.943H181.885V232.537L182.736 230.178L181.885 227.153L182.736 223.893L181.885 220.343V145.543Z" fill="#2F2E41"/>
<path d="M171.602 79.4317C169.922 81.6302 167.532 83.1995 164.825 83.8811C162.118 84.5628 159.256 84.3162 156.711 83.1819C154.165 82.0476 152.088 80.0933 150.82 77.6408C149.553 75.1883 149.172 72.3838 149.739 69.6893C150.306 66.9947 151.788 64.5708 153.941 62.8166C156.093 61.0625 158.789 60.0827 161.582 60.0387C164.376 59.9946 167.101 60.8889 169.31 62.5744C171.518 64.2598 173.078 66.6358 173.733 69.3111C173.768 69.4562 173.798 69.6006 173.827 69.7504C174.172 71.4273 174.153 73.1573 173.769 74.8262C173.386 76.495 172.647 78.0648 171.602 79.4317Z" fill="#FFB6B6"/>
<path d="M169.038 72.5217C168.777 71.2323 168.118 70.0541 167.15 69.1489C167.245 70.3845 167.071 71.626 166.639 72.7899C163.405 73.072 160.157 72.4382 157.276 70.9631C155.107 69.5134 152.346 69.6391 149.13 70.9631C149.13 69.4224 149.438 67.8968 150.036 66.4734C150.635 65.0499 151.512 63.7566 152.618 62.6672C153.724 61.5777 155.037 60.7136 156.483 60.1241C157.928 59.5346 159.477 59.2313 161.041 59.2314H163.168C166.327 59.232 169.356 60.4682 171.59 62.6682C173.823 64.8682 175.078 67.8519 175.079 70.9631C173.116 71.6566 171.094 72.1782 169.038 72.5217Z" fill="#2F2E41"/>
<path d="M75.9848 222.045C94.8832 222.045 110.203 206.956 110.203 188.342C110.203 169.728 94.8832 154.639 75.9848 154.639C57.0863 154.639 41.7661 169.728 41.7661 188.342C41.7661 206.956 57.0863 222.045 75.9848 222.045Z" fill="#FA0D1B"/>
<path d="M294.045 67.4068C312.943 67.4068 328.263 52.3173 328.263 33.7034C328.263 15.0895 312.943 0 294.045 0C275.146 0 259.826 15.0895 259.826 33.7034C259.826 52.3173 275.146 67.4068 294.045 67.4068Z" fill="#FA0D1B"/>
<path d="M565.781 227.333C584.68 227.333 600 212.243 600 193.629C600 175.015 584.68 159.926 565.781 159.926C546.883 159.926 531.562 175.015 531.562 193.629C531.562 212.243 546.883 227.333 565.781 227.333Z" fill="#FA0D1B"/>
<path d="M355.773 37.3788V113.804C355.773 115.391 355.137 116.914 354.004 118.043C352.87 119.171 351.33 119.814 349.719 119.83C349.696 119.832 349.674 119.833 349.652 119.833H340.621C333.395 119.833 326.465 117.006 321.355 111.973C316.246 106.941 313.375 100.115 313.375 92.998V37.3788C313.375 35.7798 314.02 34.2462 315.168 33.1155C316.316 31.9848 317.873 31.3496 319.497 31.3496H323.156C321.461 36.2205 344.469 38.2712 345.732 31.3496H349.652C351.275 31.3496 352.832 31.9848 353.98 33.1155C355.128 34.2462 355.773 35.7798 355.773 37.3788Z" fill="white"/>
<path d="M328.973 25.6349C328.973 25.4254 329.057 25.2246 329.208 25.0764C329.358 24.9283 329.562 24.845 329.775 24.8447H335.23C335.442 24.8453 335.646 24.9288 335.796 25.077C335.946 25.2251 336.03 25.4257 336.03 25.6349C336.03 25.844 335.946 26.0447 335.796 26.1928C335.646 26.3409 335.442 26.4244 335.23 26.425H329.775C329.562 26.4248 329.358 26.3415 329.208 26.1933C329.057 26.0452 328.973 25.8444 328.973 25.6349Z" fill="#3F3D56"/>
<path d="M351.526 129.527H317.028C314.351 129.524 311.785 128.475 309.893 126.611C308 124.747 306.936 122.22 306.933 119.583V66.1594C306.743 66.0254 306.589 65.8489 306.482 65.6445C306.376 65.44 306.321 65.2136 306.321 64.9839V59.6109C306.321 59.3813 306.376 59.1549 306.482 58.9505C306.589 58.7461 306.743 58.5696 306.933 58.4357V56.9937C306.743 56.8598 306.589 56.6833 306.482 56.4789C306.376 56.2745 306.321 56.0481 306.321 55.8185V50.4452C306.321 50.2155 306.376 49.9891 306.482 49.7847C306.589 49.5803 306.743 49.4039 306.933 49.27V46.6637C306.699 46.54 306.503 46.3559 306.367 46.1313C306.231 45.9067 306.16 45.6499 306.161 45.3884V40.0155C306.16 39.7539 306.231 39.4971 306.367 39.2724C306.503 39.0478 306.699 38.8637 306.933 38.7399V31.5983C306.936 28.9621 308 26.4348 309.893 24.5708C311.785 22.7067 314.351 21.6582 317.028 21.6553H351.526C354.202 21.6582 356.768 22.7068 358.661 24.5708C360.553 26.4349 361.618 28.9622 361.621 31.5984V47.1654C361.803 47.2775 361.953 47.4331 362.056 47.6179C362.16 47.8026 362.215 48.0103 362.215 48.2216V58.4667C362.215 58.678 362.16 58.8857 362.056 59.0705C361.953 59.2553 361.803 59.4111 361.621 59.5231V119.583C361.618 122.22 360.553 124.747 358.661 126.611C356.768 128.475 354.202 129.524 351.526 129.527ZM317.028 22.977C314.707 22.9795 312.482 23.8887 310.841 25.5049C309.2 27.1212 308.277 29.3126 308.274 31.5984V39.8642L307.629 39.8887C307.595 39.8899 307.564 39.9037 307.54 39.9273C307.517 39.9509 307.503 39.9824 307.503 40.0155V45.3884C307.503 45.4214 307.517 45.453 307.54 45.4765C307.564 45.5001 307.595 45.5139 307.629 45.5152L308.274 45.5394V50.198L307.764 50.3219C307.736 50.3286 307.71 50.3443 307.692 50.3666C307.674 50.3889 307.664 50.4165 307.663 50.4452V55.8184C307.664 55.8471 307.674 55.8747 307.692 55.897C307.71 55.9193 307.736 55.935 307.764 55.9417L308.274 56.0656V59.3637L307.764 59.4876C307.736 59.4943 307.71 59.5101 307.692 59.5324C307.674 59.5547 307.664 59.5823 307.663 59.6109V64.9839C307.664 65.0126 307.674 65.0402 307.692 65.0626C307.71 65.0849 307.736 65.1007 307.764 65.1074L308.274 65.2313V119.583C308.277 121.869 309.2 124.061 310.841 125.677C312.482 127.293 314.707 128.202 317.028 128.205H351.526C353.846 128.202 356.071 127.293 357.712 125.677C359.353 124.061 360.276 121.869 360.279 119.583V58.3915H360.873V48.2971H360.279V31.5983C360.276 29.3126 359.353 27.1212 357.712 25.505C356.071 23.8887 353.846 22.9796 351.526 22.977L317.028 22.977Z" fill="#3F3D56"/>
<path d="M338.279 26.425C338.722 26.425 339.081 26.0713 339.081 25.6349C339.081 25.1985 338.722 24.8447 338.279 24.8447C337.836 24.8447 337.477 25.1985 337.477 25.6349C337.477 26.0713 337.836 26.425 338.279 26.425Z" fill="#3F3D56"/>
<path d="M163.767 178.696H74.0016C72.7269 178.692 71.5052 178.192 70.6038 177.305C69.7023 176.417 69.1944 175.214 69.1909 173.958V130.878C69.1942 129.622 69.702 128.419 70.6033 127.531C71.5047 126.643 72.7262 126.143 74.001 126.14H163.766C165.041 126.143 166.262 126.643 167.164 127.531C168.065 128.419 168.573 129.622 168.577 130.877V173.957C168.573 175.213 168.066 176.416 167.164 177.304C166.263 178.192 165.041 178.692 163.767 178.696Z" fill="white"/>
<path d="M163.767 178.696H74.0016C72.7269 178.692 71.5052 178.192 70.6038 177.305C69.7023 176.417 69.1944 175.214 69.1909 173.958V130.878C69.1942 129.622 69.702 128.419 70.6033 127.531C71.5047 126.643 72.7262 126.143 74.001 126.14H163.766C165.041 126.143 166.262 126.643 167.164 127.531C168.065 128.419 168.573 129.622 168.577 130.877V173.957C168.573 175.213 168.066 176.416 167.164 177.304C166.263 178.192 165.041 178.692 163.767 178.696ZM74.0016 127.461C73.0824 127.464 72.2015 127.825 71.5516 128.465C70.9016 129.106 70.5354 129.973 70.5328 130.879V173.957C70.5355 174.863 70.9019 175.73 71.552 176.371C72.2021 177.011 73.083 177.372 74.0023 177.374H163.765C164.685 177.372 165.566 177.011 166.216 176.37C166.866 175.73 167.232 174.862 167.235 173.957V130.878C167.232 129.973 166.866 129.105 166.216 128.465C165.565 127.825 164.685 127.464 163.765 127.461L74.0016 127.461Z" fill="#3F3D56"/>
<path d="M123.695 172.329C105.991 172.329 87.5313 172.162 80.6436 172.054C79.7374 172.036 78.8744 171.669 78.2389 171.033C77.6034 170.396 77.2457 169.54 77.2422 168.648V132.987C77.2425 132.667 77.3714 132.361 77.6006 132.134C77.8299 131.908 78.1408 131.78 78.4653 131.779H159.299C159.624 131.78 159.935 131.907 160.164 132.132C160.394 132.358 160.524 132.664 160.525 132.984V157.179C160.51 161.128 158.924 164.915 156.107 167.726C153.29 170.537 149.467 172.148 145.457 172.215C139.038 172.297 131.437 172.329 123.695 172.329Z" fill="black"/>
<path d="M154.501 154.956H81.4614C80.8499 154.955 80.2536 154.768 79.7538 154.421C79.2539 154.073 78.8746 153.583 78.6676 153.016L70.4005 130.173C70.2412 129.733 70.1916 129.261 70.2558 128.797C70.3199 128.334 70.4961 127.893 70.7694 127.51C71.0427 127.128 71.4052 126.815 71.8264 126.6C72.2477 126.384 72.7153 126.271 73.1902 126.27L164.488 126.145C164.922 126.144 165.351 126.237 165.745 126.418C166.138 126.598 166.486 126.862 166.765 127.189C167.044 127.517 167.247 127.9 167.359 128.313C167.471 128.726 167.489 129.159 167.413 129.579L167.484 129.609L167.222 130.211L167.219 130.217L157.225 153.186C156.998 153.711 156.618 154.16 156.134 154.474C155.649 154.789 155.081 154.957 154.501 154.956ZM164.493 127.466L73.1928 127.591C72.9327 127.592 72.6765 127.654 72.4457 127.772C72.2149 127.89 72.0163 128.061 71.8666 128.271C71.7168 128.48 71.6203 128.722 71.5852 128.976C71.55 129.23 71.5772 129.488 71.6645 129.729L79.9311 152.572C80.0448 152.882 80.2527 153.151 80.5266 153.341C80.8006 153.531 81.1273 153.634 81.4624 153.635H154.501C154.819 153.635 155.129 153.543 155.394 153.371C155.659 153.198 155.867 152.953 155.992 152.665L165.986 129.697C166.092 129.453 166.135 129.188 166.111 128.924C166.087 128.66 165.997 128.406 165.849 128.185C165.701 127.964 165.5 127.783 165.263 127.657C165.026 127.532 164.761 127.466 164.493 127.466Z" fill="#3F3D56"/>
<path d="M118.748 159.928C121.906 159.928 124.467 157.406 124.467 154.295C124.467 151.184 121.906 148.662 118.748 148.662C115.589 148.662 113.028 151.184 113.028 154.295C113.028 157.406 115.589 159.928 118.748 159.928Z" fill="white"/>
<path d="M334.795 111.026C337.954 111.026 340.514 108.504 340.514 105.393C340.514 102.282 337.954 99.7598 334.795 99.7598C331.636 99.7598 329.076 102.282 329.076 105.393C329.076 108.504 331.636 111.026 334.795 111.026Z" fill="#FA0D1B"/>
<path d="M551.107 187.101L535.83 172.245C535.086 171.516 534.204 170.939 533.233 170.546C532.262 170.154 531.223 169.954 530.174 169.958H530.12C529.063 169.961 528.017 170.171 527.043 170.574C526.068 170.978 525.185 171.568 524.444 172.311C521.028 175.716 519.085 180.293 519.023 185.079C518.962 189.866 520.787 194.489 524.115 197.978C524.276 198.15 524.444 198.315 524.611 198.48C525.541 199.39 526.566 200.199 527.671 200.892C530.691 202.815 534.213 203.832 537.809 203.82H537.923C540.391 203.812 542.833 203.322 545.108 202.378C547.382 201.434 549.444 200.055 551.175 198.322C552.674 196.824 553.509 194.801 553.496 192.698C553.483 190.594 552.624 188.581 551.107 187.101ZM550.222 197.39C547.385 200.204 543.65 201.97 539.647 202.389C535.643 202.808 531.615 201.854 528.241 199.69C527.276 199.061 526.375 198.342 525.551 197.542C522.259 194.34 520.393 189.981 520.364 185.424C520.335 180.867 522.145 176.485 525.396 173.242C526.014 172.622 526.751 172.129 527.565 171.792C528.378 171.455 529.251 171.281 530.133 171.28H530.174C531.047 171.277 531.913 171.443 532.721 171.77C533.529 172.096 534.264 172.577 534.884 173.183L550.161 188.046C551.426 189.278 552.143 190.953 552.154 192.705C552.165 194.457 551.47 196.142 550.222 197.39Z" fill="#3F3D56"/>
<path d="M500.98 138.342L485.703 123.48C484.199 122.01 482.165 121.188 480.047 121.193H480C478.941 121.198 477.894 121.408 476.919 121.813C475.943 122.218 475.059 122.809 474.317 123.553C471.493 126.378 469.662 130.019 469.092 133.944C468.522 137.868 469.243 141.869 471.15 145.361L471.157 145.367C471.943 146.795 472.92 148.113 474.062 149.286C474.189 149.432 474.337 149.577 474.484 149.722C477.993 153.152 482.739 155.073 487.682 155.062H487.803C490.271 155.052 492.713 154.56 494.988 153.615C497.262 152.67 499.324 151.291 501.054 149.557C501.797 148.816 502.384 147.938 502.783 146.973C503.181 146.009 503.383 144.976 503.376 143.935C503.369 142.893 503.154 141.863 502.743 140.904C502.332 139.944 501.733 139.074 500.98 138.342ZM500.095 148.632C498.489 150.241 496.575 151.521 494.464 152.398C492.353 153.275 490.087 153.731 487.796 153.74H487.682C484.242 153.739 480.878 152.736 478.015 150.857C475.152 148.978 472.917 146.307 471.591 143.18C470.265 140.053 469.908 136.61 470.563 133.283C471.219 129.957 472.859 126.896 475.276 124.484C476.527 123.239 478.229 122.533 480.007 122.522C481.786 122.511 483.497 123.195 484.764 124.425L500.041 139.281C501.305 140.515 502.02 142.193 502.031 143.945C502.041 145.698 501.344 147.384 500.095 148.632Z" fill="#3F3D56"/>
<path d="M552.084 191.771L535.241 175.386C534.136 174.314 532.645 173.717 531.095 173.727C529.544 173.736 528.06 174.351 526.97 175.436C525.605 176.794 524.525 178.404 523.793 180.173C523.06 181.942 522.688 183.836 522.699 185.747C522.71 187.657 523.104 189.547 523.857 191.308C524.609 193.068 525.707 194.666 527.088 196.008C528.468 197.351 530.103 198.413 531.9 199.132C533.697 199.852 535.62 200.216 537.56 200.203C539.5 200.19 541.418 199.8 543.205 199.057C544.992 198.313 546.612 197.23 547.974 195.869L552.084 191.771Z" fill="black"/>
<path d="M501.96 143.01L485.117 126.625C484.013 125.553 482.522 124.956 480.971 124.966C479.42 124.975 477.937 125.59 476.846 126.676C475.481 128.034 474.402 129.643 473.669 131.412C472.936 133.181 472.565 135.075 472.576 136.986C472.587 138.896 472.98 140.786 473.733 142.547C474.486 144.308 475.584 145.905 476.964 147.248C478.344 148.59 479.979 149.652 481.776 150.371C483.573 151.091 485.497 151.455 487.437 151.442C489.376 151.429 491.294 151.04 493.081 150.296C494.868 149.553 496.489 148.469 497.85 147.109L501.96 143.01Z" fill="black"/>
<path d="M533.576 201.976L533.173 203.02C531.281 202.313 529.447 201.603 527.671 200.892C496.217 188.25 481.201 173.453 471.157 145.367L471.15 145.36C470.674 144.039 470.211 142.686 469.761 141.303L470.821 140.966C471.176 142.296 471.694 143.579 472.365 144.786C472.915 146.325 473.481 147.825 474.062 149.286C483.502 172.991 497.425 186.538 524.115 197.977C525.457 198.552 526.833 199.123 528.242 199.689C529.878 200.739 531.681 201.512 533.576 201.976Z" fill="#3F3D56"/>
<path d="M485.423 153.859L484.479 154.8L519.328 188.7L520.271 187.759L485.423 153.859Z" fill="#3F3D56"/>
<path d="M190.393 125.769L190.411 104.052L177.45 105.193L182.024 118.89L165.42 143.681C164.382 143.91 163.434 144.432 162.691 145.183C161.949 145.935 161.445 146.882 161.24 147.911C161.035 148.939 161.138 150.004 161.537 150.976C161.936 151.947 162.613 152.784 163.487 153.383C164.36 153.982 165.391 154.318 166.455 154.349C167.518 154.381 168.568 154.107 169.477 153.561C170.385 153.016 171.113 152.221 171.571 151.275C172.029 150.329 172.197 149.272 172.056 148.233L190.393 125.769Z" fill="#FFB6B6"/>
</g>
<defs>
<clipPath id="clip0_221_485">
<rect width="600" height="296.248" fill="white"/>
</clipPath>
</defs>
</svg>
