<svg width="96" height="96" viewBox="0 0 96 96" fill="none" xmlns="http://www.w3.org/2000/svg">
<g clip-path="url(#clip0_221_562)">
<path opacity="0.3" d="M80 32L48 52L16 32V72H80V32ZM80 24H16L48 43.96L80 24Z" fill="white"/>
<path d="M16 80H80C84.4 80 88 76.4 88 72V24C88 19.6 84.4 16 80 16H16C11.6 16 8 19.6 8 24V72C8 76.4 11.6 80 16 80ZM80 24L48 43.96L16 24H80ZM16 32L48 52L80 32V72H16V32Z" fill="black"/>
</g>
<defs>
<clipPath id="clip0_221_562">
<rect width="96" height="96" fill="white"/>
</clipPath>
</defs>
</svg>
