<svg width="96" height="96" viewBox="0 0 96 96" fill="none" xmlns="http://www.w3.org/2000/svg">
<g clip-path="url(#clip0_221_676)">
<path opacity="0.3" d="M76.0001 69.88C72.4801 69.6 69.0001 69 65.6001 68.08L60.8401 72.84C65.6401 74.48 70.7601 75.52 76.0401 75.84V69.88H76.0001ZM20.1201 20C20.4801 25.28 21.5201 30.36 23.1201 35.2L27.9201 30.4C27.0001 27.04 26.4001 23.56 26.1601 20H20.1201Z" fill="white"/>
<path d="M36.28 30.28C34.8 25.8 34 21 34 16C34 13.8 32.2 12 30 12H16C13.8 12 12 13.8 12 16C12 53.56 42.44 84 80 84C82.2 84 84 82.2 84 80V66.04C84 63.84 82.2 62.04 80 62.04C75.04 62.04 70.2 61.24 65.72 59.76C65.32 59.6 64.88 59.56 64.48 59.56C63.44 59.56 62.44 59.96 61.64 60.72L52.84 69.52C41.52 63.72 32.24 54.48 26.48 43.16L35.28 34.36C36.4 33.24 36.72 31.68 36.28 30.28ZM65.6 68.08C69 69.04 72.48 69.64 76 69.88V75.84C70.72 75.48 65.64 74.44 60.8 72.84L65.6 68.08ZM23.16 35.2C21.52 30.36 20.48 25.28 20.12 20H26.12C26.4 23.56 27 27.04 27.96 30.36L23.16 35.2Z" fill="black"/>
</g>
<defs>
<clipPath id="clip0_221_676">
<rect width="96" height="96" fill="white"/>
</clipPath>
</defs>
</svg>
