<svg width="232" height="190" viewBox="0 0 232 190" fill="none" xmlns="http://www.w3.org/2000/svg">
<g clip-path="url(#clip0_189_840)">
<path d="M182.011 29.8387C182.011 29.8387 176.904 30.6065 176.574 41.1528C176.299 49.942 175.738 54.8395 178.42 56.6728C179.378 57.328 180.505 57.3843 181.53 56.9375L192.472 52.1393C192.472 52.1393 192.636 36.3214 188.847 32.4762C185.058 28.6309 182.011 29.8387 182.011 29.8387Z" fill="#36344E"/>
<path d="M188.043 54.0784L182.505 56.5074V45.875H187.53L188.043 54.0784Z" fill="#FAAFB2"/>
<path d="M171.113 114.431C170.813 116.867 169.595 118.614 168.394 118.333C167.19 118.051 166.461 115.847 166.761 113.412C166.87 112.436 167.16 111.512 167.605 110.721L168.977 100.423L172.711 101.466L170.962 111.506C171.193 112.455 171.245 113.458 171.113 114.431Z" fill="#FAAFB2"/>
<path d="M183.793 182.908H178.607L175.597 145.944H183.616L183.793 182.908Z" fill="#FAAFB2"/>
<path d="M173.555 188.848C173.009 188.848 172.522 188.831 172.158 188.785C170.78 188.616 169.465 187.259 168.805 186.469C168.51 186.114 168.413 185.545 168.567 185.055C168.679 184.705 168.9 184.443 169.175 184.337L172.815 182.951L178.711 177.646L178.778 177.805C178.803 177.865 179.381 179.255 179.574 180.194C179.649 180.552 179.629 180.85 179.517 181.081C179.44 181.24 179.331 181.333 179.244 181.386C179.351 181.535 179.686 181.836 180.716 182.054C182.222 182.372 182.534 180.294 182.549 180.208L182.559 180.138L182.604 180.098C183.319 179.483 183.76 179.205 183.912 179.264C184.006 179.301 184.165 179.367 184.592 185.026C184.634 185.204 184.934 186.505 184.73 187.752C184.51 189.109 180.071 188.643 179.182 188.533C179.157 188.537 175.835 188.851 173.557 188.851H173.555V188.848Z" fill="#36344E"/>
<path d="M195.512 182.908H190.323L187.316 145.944H195.333L195.512 182.908Z" fill="#FAAFB2"/>
<path d="M185.274 188.848C184.728 188.848 184.242 188.831 183.877 188.785C182.5 188.616 181.185 187.259 180.524 186.469C180.229 186.114 180.132 185.545 180.286 185.055C180.398 184.705 180.619 184.443 180.894 184.337L184.534 182.951L190.43 177.646L190.497 177.805C190.522 177.865 191.1 179.255 191.293 180.194C191.368 180.552 191.348 180.85 191.236 181.081C191.159 181.24 191.05 181.333 190.963 181.386C191.07 181.535 191.405 181.836 192.435 182.054C193.941 182.372 194.254 180.294 194.269 180.208L194.279 180.138L194.323 180.098C195.04 179.483 195.479 179.205 195.631 179.264C195.725 179.301 195.884 179.367 196.311 185.026C196.353 185.204 196.653 186.505 196.45 187.752C196.229 189.109 191.79 188.643 190.901 188.533C190.877 188.537 187.554 188.851 185.276 188.851H185.274V188.848Z" fill="#36344E"/>
<path d="M197.003 92.1207H171.8L180.86 52.3577H190.909L197.003 92.1207Z" fill="#6CDDC2"/>
<path d="M182.445 52.361C182.445 52.361 176.185 52.1426 175.527 54.3399C174.87 56.5372 167.125 108.825 167.125 108.825H172.232L182.445 52.3643V52.361Z" fill="#6CDDC2"/>
<path d="M183.189 48.8168C186.237 48.8168 188.708 45.5218 188.708 41.4573C188.708 37.3927 186.237 34.0977 183.189 34.0977C180.142 34.0977 177.671 37.3927 177.671 41.4573C177.671 45.5218 180.142 48.8168 183.189 48.8168Z" fill="#FAAFB2"/>
<path d="M181.681 32.5854C181.681 32.5854 178.644 49.032 182.021 56.7192L177.264 55.3724C177.264 55.3724 175.42 37.3738 179.128 34.101L181.681 32.5854Z" fill="#36344E"/>
<path d="M191.765 92.1206H175.225L166.175 141.656C166.009 143.747 167.004 145.699 168.528 146.245C173.493 148.019 185.408 150.531 203.44 143.532C205.174 142.86 206.16 140.418 205.616 138.118L191.765 92.1206Z" fill="#36344E"/>
<path d="M185.078 52.3578L190.222 52.0566C192.45 52.2817 194.465 53.8965 195.659 56.4148C199.294 64.0789 206.095 80.2309 200.023 82.4448C192.018 85.3601 188.14 69.1287 188.14 69.1287L185.078 52.3578Z" fill="#6CDDC2"/>
<path d="M183.314 57.1692C182.257 55.144 182.22 52.7581 183.227 51.8414C184.237 50.9248 185.912 51.8282 186.969 53.8534C187.401 54.6542 187.674 55.5874 187.768 56.5669L192.162 65.2303L188.939 67.9538L184.949 59.1249C184.287 58.6583 183.726 57.9866 183.314 57.1692Z" fill="#FAAFB2"/>
<path d="M185.914 64.1746L189.544 59.7205L196.723 68.6321L190.048 74.7176L185.914 64.1746Z" fill="#6CDDC2"/>
<path d="M8.04201 42.2217H122C126.441 42.2217 130.042 47.0233 130.042 52.9467C130.042 58.8701 126.441 63.6717 122 63.6717H8.04201C3.60042 63.6717 0 58.8701 0 52.9467C0 47.0233 3.60042 42.2217 8.04201 42.2217Z" fill="white"/>
<path d="M50.4482 188.924C50.4482 189.142 50.5798 189.318 50.7435 189.318H231.705C231.869 189.318 232 189.142 232 188.924C232 188.705 231.869 188.53 231.705 188.53H50.7435C50.5798 188.53 50.4482 188.705 50.4482 188.924Z" fill="#484565"/>
<path d="M105.363 31.4072H129.022C129.588 31.4072 130.045 32.0161 130.045 32.7673C130.045 33.5185 129.588 34.1274 129.022 34.1274H105.363C104.797 34.1274 104.34 33.5185 104.34 32.7673C104.34 32.0161 104.797 31.4072 105.363 31.4072Z" fill="#DFDFE0"/>
<path d="M1.02231 0.317627H24.6819C25.2476 0.317627 25.7042 0.926515 25.7042 1.6777C25.7042 2.42888 25.2476 3.03777 24.6819 3.03777H1.02231C0.456566 3.04107 0 2.43219 0 1.6777C0 0.926515 0.456566 0.317627 1.02231 0.317627Z" fill="#DFDFE0"/>
<path d="M1.02231 12.2009H70.4675C71.0332 12.2009 71.4898 12.8098 71.4898 13.5643C71.4898 14.3155 71.0332 14.9244 70.4675 14.9244H1.02231C0.456566 14.9244 0 14.3155 0 13.5643C0 12.8131 0.456566 12.2009 1.02231 12.2009Z" fill="#DFDFE0"/>
<path d="M58.0063 86.6473C58.0063 93.7819 62.3437 99.5663 67.6935 99.5663C69.3138 99.5663 70.8398 99.0368 72.1797 98.1003L81.5666 117.955C82.1423 119.17 83.3706 119.474 84.2341 118.614C85.0405 117.81 85.2142 116.294 84.6261 115.202L74.3013 96.0917C76.1945 93.7322 77.3806 90.3734 77.3806 86.6473C77.3806 79.5127 73.0432 73.7283 67.6935 73.7283C62.3437 73.7283 58.0063 79.5127 58.0063 86.6473ZM59.3363 86.6473C59.3363 80.4922 63.0782 75.4987 67.696 75.4987C72.3137 75.4987 76.0556 80.4889 76.0556 86.6473C76.0556 92.8023 72.3137 97.7959 67.696 97.7959C63.0807 97.7959 59.3363 92.8056 59.3363 86.6473Z" fill="#DFDFE0"/>
</g>
<defs>
<clipPath id="clip0_189_840">
<rect width="232" height="189" fill="white" transform="translate(0 0.317627)"/>
</clipPath>
</defs>
</svg>
