<svg width="232" height="189" viewBox="0 0 232 189" fill="none" xmlns="http://www.w3.org/2000/svg">
<g clip-path="url(#clip0_189_591)">
<path d="M133.695 9.19867C135.685 13.7689 131.468 15.0634 126.638 17.513C121.807 19.9626 118.192 22.6396 116.202 18.0694C114.212 13.4992 112.598 4.42811 119.431 0.962738C126.5 -2.62201 131.705 4.62844 133.695 9.19867Z" fill="#2F2E41"/>
<path d="M123.84 18.1866C127.431 18.1866 130.342 15.0446 130.342 11.1688C130.342 7.29307 127.431 4.15112 123.84 4.15112C120.248 4.15112 117.337 7.29307 117.337 11.1688C117.337 15.0446 120.248 18.1866 123.84 18.1866Z" fill="#FFB8B8"/>
<path d="M156.055 42.291C155.83 41.9739 155.605 41.6625 155.378 41.3596C155.084 40.9653 154.788 40.5834 154.491 40.2138C151.12 36.0165 147.535 33.3735 143.588 33.0907H143.583L143.524 33.085L135.658 41.3596L132.984 44.1711L133.043 44.3254L134.486 48.2027H159.767C158.628 46.1625 157.389 44.1891 156.055 42.291Z" fill="#2F2E41"/>
<path d="M116.768 13.994L119.096 12.8135L118.772 9.18958L120.328 12.1886L121.441 11.6244L121.252 9.51044L122.16 11.2599L130.427 7.06753C129.65 5.28433 128.249 3.90704 126.532 3.23864C124.814 2.57024 122.921 2.66549 121.269 3.50342L120.071 4.11101C118.419 4.94895 117.142 6.46094 116.523 8.31436C115.904 10.1678 115.992 12.2108 116.768 13.994Z" fill="#2F2E41"/>
<path d="M170.644 141.377H34.8656C33.7074 141.376 32.597 140.879 31.778 139.995C30.9591 139.111 30.4984 137.913 30.4971 136.663V48.6153C30.498 47.6996 30.8355 46.8217 31.4355 46.1742C32.0354 45.5267 32.8489 45.1624 33.6974 45.1614H171.756C172.62 45.1624 173.447 45.533 174.058 46.1917C174.668 46.8504 175.011 47.7435 175.012 48.6751V136.663C175.011 137.913 174.55 139.111 173.731 139.995C172.912 140.879 171.802 141.376 170.644 141.377Z" fill="#6CDDC2"/>
<path d="M39.1014 136.663H166.407C167.531 136.663 168.608 136.181 169.403 135.324C170.197 134.467 170.643 133.304 170.643 132.091V57.3602C170.643 56.1477 170.197 54.9849 169.403 54.1276C168.608 53.2702 167.531 52.7886 166.407 52.7886H39.1014C37.9779 52.7886 36.9004 53.2702 36.106 54.1276C35.3115 54.9849 34.8652 56.1477 34.8652 57.3602V132.091C34.8652 133.304 35.3115 134.467 36.106 135.324C36.9004 136.181 37.9779 136.663 39.1014 136.663Z" fill="#6CDDC2"/>
<path d="M174.951 48.3455H30.4355V45.9453C30.4372 44.6912 30.8998 43.489 31.7217 42.6025C32.5437 41.716 33.6579 41.2176 34.82 41.2166H170.567C171.729 41.2176 172.843 41.716 173.665 42.6025C174.487 43.489 174.95 44.6912 174.951 45.9453V48.3455Z" fill="#6CDDC2"/>
<path d="M38.4036 46.0122C39.0299 46.0122 39.5377 45.4643 39.5377 44.7883C39.5377 44.1124 39.0299 43.5645 38.4036 43.5645C37.7773 43.5645 37.2695 44.1124 37.2695 44.7883C37.2695 45.4643 37.7773 46.0122 38.4036 46.0122Z" fill="white"/>
<path d="M42.7083 46.0122C43.3346 46.0122 43.8424 45.4643 43.8424 44.7883C43.8424 44.1124 43.3346 43.5645 42.7083 43.5645C42.082 43.5645 41.5742 44.1124 41.5742 44.7883C41.5742 45.4643 42.082 46.0122 42.7083 46.0122Z" fill="white"/>
<path d="M47.013 46.0122C47.6393 46.0122 48.147 45.4643 48.147 44.7883C48.147 44.1124 47.6393 43.5645 47.013 43.5645C46.3866 43.5645 45.8789 44.1124 45.8789 44.7883C45.8789 45.4643 46.3866 46.0122 47.013 46.0122Z" fill="white"/>
<path d="M106.726 120.456H95.3419C94.675 120.455 94.0357 120.169 93.5642 119.66C93.0927 119.151 92.8274 118.461 92.8267 117.742V105.456C92.8274 104.736 93.0927 104.046 93.5642 103.537C94.0357 103.028 94.675 102.742 95.3419 102.741H106.726C107.393 102.742 108.033 103.028 108.504 103.537C108.976 104.046 109.241 104.736 109.242 105.456V117.742C109.241 118.461 108.976 119.151 108.504 119.66C108.033 120.169 107.393 120.455 106.726 120.456ZM95.3419 103.313C94.8154 103.313 94.3107 103.539 93.9384 103.941C93.5661 104.343 93.3568 104.887 93.3562 105.456V117.742C93.3568 118.31 93.5661 118.855 93.9384 119.256C94.3107 119.658 94.8154 119.884 95.3419 119.885H106.726C107.253 119.884 107.758 119.658 108.13 119.256C108.502 118.855 108.712 118.31 108.712 117.742V105.456C108.712 104.887 108.502 104.343 108.13 103.941C107.758 103.539 107.253 103.313 106.726 103.313H95.3419Z" fill="black"/>
<path d="M104.476 117.028H97.5926C97.382 117.027 97.1801 116.937 97.0312 116.776C96.8823 116.615 96.7986 116.398 96.7983 116.17V107.027C96.7986 106.8 96.8823 106.582 97.0312 106.421C97.1801 106.261 97.382 106.17 97.5926 106.17H102.58C102.761 106.17 102.937 106.237 103.078 106.359L104.974 108.003C105.067 108.083 105.142 108.185 105.193 108.3C105.244 108.416 105.271 108.543 105.271 108.671V116.17C105.27 116.398 105.187 116.615 105.038 116.776C104.889 116.937 104.687 117.027 104.476 117.028ZM97.5926 106.741C97.5224 106.741 97.4551 106.772 97.4055 106.825C97.3559 106.879 97.3279 106.951 97.3279 107.027V116.17C97.3279 116.246 97.3559 116.319 97.4055 116.372C97.4551 116.426 97.5224 116.456 97.5926 116.456H104.476C104.547 116.456 104.614 116.426 104.663 116.372C104.713 116.319 104.741 116.246 104.741 116.17V108.671C104.741 108.628 104.732 108.586 104.715 108.548C104.698 108.509 104.673 108.475 104.642 108.448L102.746 106.804C102.699 106.764 102.641 106.741 102.58 106.741H97.5926Z" fill="black"/>
<path d="M103.152 110.17H98.9161C98.8459 110.17 98.7786 110.14 98.7289 110.086C98.6792 110.033 98.6514 109.96 98.6514 109.884C98.6514 109.809 98.6792 109.736 98.7289 109.682C98.7786 109.629 98.8459 109.599 98.9161 109.599H103.152C103.222 109.599 103.29 109.629 103.339 109.682C103.389 109.736 103.417 109.809 103.417 109.884C103.417 109.96 103.389 110.033 103.339 110.086C103.29 110.14 103.222 110.17 103.152 110.17Z" fill="black"/>
<path d="M103.152 111.884H98.9161C98.8459 111.884 98.7786 111.854 98.7289 111.801C98.6792 111.747 98.6514 111.674 98.6514 111.599C98.6514 111.523 98.6792 111.45 98.7289 111.397C98.7786 111.343 98.8459 111.313 98.9161 111.313H103.152C103.222 111.313 103.29 111.343 103.339 111.397C103.389 111.45 103.417 111.523 103.417 111.599C103.417 111.674 103.389 111.747 103.339 111.801C103.29 111.854 103.222 111.884 103.152 111.884Z" fill="black"/>
<path d="M103.152 113.599H98.9161C98.8459 113.599 98.7786 113.569 98.7289 113.515C98.6792 113.462 98.6514 113.389 98.6514 113.313C98.6514 113.237 98.6792 113.165 98.7289 113.111C98.7786 113.057 98.8459 113.027 98.9161 113.027H103.152C103.222 113.027 103.29 113.057 103.339 113.111C103.389 113.165 103.417 113.237 103.417 113.313C103.417 113.389 103.389 113.462 103.339 113.515C103.29 113.569 103.222 113.599 103.152 113.599Z" fill="black"/>
<path d="M133.732 120.456H122.347C121.68 120.455 121.041 120.169 120.57 119.66C120.098 119.151 119.833 118.461 119.832 117.742V105.456C119.833 104.736 120.098 104.046 120.57 103.537C121.041 103.028 121.68 102.742 122.347 102.741H133.732C134.399 102.742 135.038 103.028 135.51 103.537C135.981 104.046 136.246 104.736 136.247 105.456V117.742C136.246 118.461 135.981 119.151 135.51 119.66C135.038 120.169 134.399 120.455 133.732 120.456ZM122.347 103.313C121.821 103.313 121.316 103.539 120.944 103.941C120.572 104.343 120.362 104.887 120.362 105.456V117.742C120.362 118.31 120.572 118.855 120.944 119.256C121.316 119.658 121.821 119.884 122.347 119.885H133.732C134.258 119.884 134.763 119.658 135.135 119.256C135.508 118.855 135.717 118.31 135.718 117.742V105.456C135.717 104.887 135.508 104.343 135.135 103.941C134.763 103.539 134.258 103.313 133.732 103.313H122.347Z" fill="black"/>
<path d="M131.747 114.742H124.333C124.123 114.741 123.921 114.651 123.772 114.49C123.623 114.33 123.539 114.112 123.539 113.884V109.313C123.539 109.085 123.623 108.868 123.772 108.707C123.921 108.546 124.123 108.456 124.333 108.456H131.747C131.957 108.456 132.159 108.546 132.308 108.707C132.457 108.868 132.541 109.085 132.541 109.313V113.884C132.541 114.112 132.457 114.33 132.308 114.49C132.159 114.651 131.957 114.741 131.747 114.742ZM124.333 109.027C124.263 109.027 124.196 109.057 124.146 109.111C124.097 109.164 124.069 109.237 124.069 109.313V113.884C124.069 113.96 124.097 114.033 124.146 114.086C124.196 114.14 124.263 114.17 124.333 114.17H131.747C131.817 114.17 131.884 114.14 131.934 114.086C131.983 114.033 132.011 113.96 132.011 113.884V109.313C132.011 109.237 131.983 109.164 131.934 109.111C131.884 109.057 131.817 109.027 131.747 109.027H124.333Z" fill="black"/>
<path d="M128.04 112.352C127.891 112.353 127.745 112.308 127.619 112.223L123.663 109.555C123.604 109.515 123.561 109.451 123.546 109.377C123.53 109.303 123.542 109.226 123.579 109.162C123.617 109.097 123.676 109.052 123.744 109.035C123.812 109.018 123.884 109.031 123.944 109.071L127.899 111.738C127.942 111.767 127.99 111.782 128.04 111.782C128.089 111.782 128.138 111.767 128.18 111.738L132.135 109.071C132.195 109.031 132.267 109.018 132.335 109.035C132.403 109.052 132.463 109.097 132.5 109.162C132.537 109.226 132.549 109.303 132.533 109.377C132.518 109.451 132.476 109.515 132.416 109.555L128.461 112.223C128.334 112.308 128.188 112.353 128.04 112.352Z" fill="black"/>
<path d="M79.7216 120.456H68.337C67.6701 120.455 67.0308 120.169 66.5593 119.66C66.0878 119.151 65.8225 118.461 65.8218 117.742V105.456C65.8225 104.736 66.0878 104.046 66.5593 103.537C67.0308 103.028 67.6701 102.742 68.337 102.741H79.7216C80.3884 102.742 81.0277 103.028 81.4993 103.537C81.9708 104.046 82.236 104.736 82.2368 105.456V117.742C82.236 118.461 81.9708 119.151 81.4993 119.66C81.0277 120.169 80.3884 120.455 79.7216 120.456ZM68.337 103.313C67.8105 103.313 67.3058 103.539 66.9335 103.941C66.5613 104.343 66.3519 104.887 66.3513 105.456V117.742C66.3519 118.31 66.5613 118.855 66.9335 119.256C67.3058 119.658 67.8105 119.884 68.337 119.885H79.7216C80.248 119.884 80.7528 119.658 81.125 119.256C81.4973 118.855 81.7067 118.31 81.7073 117.742V105.456C81.7067 104.887 81.4973 104.343 81.125 103.941C80.7528 103.539 80.248 103.313 79.7216 103.313H68.337Z" fill="black"/>
<path d="M77.7358 114.742H70.3226C70.112 114.741 69.9101 114.651 69.7612 114.49C69.6123 114.33 69.5286 114.112 69.5283 113.884V109.313C69.5286 109.085 69.6123 108.868 69.7612 108.707C69.9101 108.546 70.112 108.456 70.3226 108.456H77.7358C77.9464 108.456 78.1483 108.546 78.2972 108.707C78.4461 108.868 78.5299 109.085 78.5301 109.313V113.884C78.5299 114.112 78.4461 114.33 78.2972 114.49C78.1483 114.651 77.9464 114.741 77.7358 114.742ZM70.3226 109.027C70.2524 109.027 70.1851 109.057 70.1355 109.111C70.0858 109.164 70.0579 109.237 70.0578 109.313V113.884C70.0579 113.96 70.0858 114.033 70.1355 114.086C70.1851 114.14 70.2524 114.17 70.3226 114.17H77.7358C77.806 114.17 77.8733 114.14 77.923 114.086C77.9726 114.033 78.0005 113.96 78.0006 113.884V109.313C78.0005 109.237 77.9726 109.164 77.923 109.111C77.8733 109.057 77.806 109.027 77.7358 109.027H70.3226Z" fill="black"/>
<path d="M76.5607 114.742H71.2327C71.1397 114.742 71.0484 114.715 70.9679 114.665C70.8874 114.615 70.8205 114.543 70.774 114.456C70.7276 114.369 70.7031 114.271 70.7031 114.17C70.7031 114.07 70.7276 113.971 70.7741 113.884L72.379 110.884C72.4255 110.797 72.4923 110.725 72.5728 110.675C72.6533 110.625 72.7446 110.599 72.8376 110.599C72.9305 110.599 73.0219 110.625 73.1024 110.675C73.1829 110.725 73.2497 110.797 73.2962 110.884L74.3327 112.822L74.9332 111.699C74.9797 111.613 75.0466 111.54 75.1271 111.49C75.2076 111.44 75.2989 111.414 75.3918 111.414C75.4848 111.414 75.5761 111.44 75.6566 111.49C75.7371 111.54 75.804 111.613 75.8504 111.699L77.0193 113.884C77.0658 113.971 77.0903 114.07 77.0903 114.17C77.0903 114.271 77.0658 114.369 77.0193 114.456C76.9728 114.543 76.906 114.615 76.8255 114.665C76.745 114.715 76.6536 114.742 76.5607 114.742ZM76.5607 114.17L75.3918 111.985L74.5621 113.536C74.5388 113.58 74.5054 113.616 74.4652 113.641C74.4249 113.666 74.3792 113.679 74.3327 113.679C74.2863 113.679 74.2406 113.666 74.2003 113.641C74.1601 113.616 74.1266 113.58 74.1034 113.536L72.8377 111.17L71.2327 114.17H76.5607Z" fill="black"/>
<path d="M76.9416 110.741C77.2341 110.741 77.4711 110.485 77.4711 110.17C77.4711 109.854 77.2341 109.598 76.9416 109.598C76.6492 109.598 76.4121 109.854 76.4121 110.17C76.4121 110.485 76.6492 110.741 76.9416 110.741Z" fill="black"/>
<path d="M203.553 185.193L200.307 185.193L198.763 171.682L203.553 171.682L203.553 185.193Z" fill="#FFB8B8"/>
<path d="M204.381 188.589L193.915 188.588V188.446C193.915 187.868 194.02 187.297 194.225 186.763C194.429 186.23 194.729 185.745 195.108 185.337C195.486 184.929 195.935 184.605 196.429 184.384C196.924 184.163 197.453 184.049 197.988 184.049H197.989L204.381 184.05L204.381 188.589Z" fill="#2F2E41"/>
<path d="M216.791 185.193L213.545 185.193L212 171.682L216.791 171.682L216.791 185.193Z" fill="#FFB8B8"/>
<path d="M217.618 188.589L207.152 188.588V188.446C207.152 187.868 207.258 187.297 207.462 186.763C207.667 186.23 207.967 185.745 208.345 185.337C208.724 184.929 209.173 184.605 209.667 184.384C210.161 184.163 210.691 184.049 211.226 184.049H211.226L217.619 184.05L217.618 188.589Z" fill="#2F2E41"/>
<path d="M215.817 179.336L212.811 178.349C212.587 178.276 212.388 178.133 212.239 177.938C212.09 177.743 211.997 177.505 211.973 177.254L209.17 148.588C209.168 148.553 209.154 148.521 209.13 148.497C209.107 148.474 209.076 148.46 209.044 148.46C209.011 148.457 208.979 148.467 208.954 148.489C208.929 148.511 208.912 148.543 208.908 148.577L204.214 176.35C204.186 176.518 204.126 176.679 204.039 176.822C203.952 176.966 203.84 177.089 203.708 177.185C203.577 177.28 203.429 177.347 203.273 177.38C203.117 177.413 202.957 177.413 202.802 177.378L198.96 176.524C198.678 176.46 198.427 176.289 198.253 176.042C198.078 175.795 197.993 175.488 198.011 175.178L200.867 129.658L220.231 127.403L217.353 178.184C217.335 178.511 217.202 178.817 216.981 179.042C216.76 179.266 216.469 179.391 216.166 179.392C216.048 179.392 215.93 179.373 215.817 179.336Z" fill="#2F2E41"/>
<path d="M215.799 90.0174C219.39 90.0174 222.302 86.8754 222.302 82.9997C222.302 79.1239 219.39 75.9819 215.799 75.9819C212.208 75.9819 209.296 79.1239 209.296 82.9997C209.296 86.8754 212.208 90.0174 215.799 90.0174Z" fill="#FFB8B8"/>
<path d="M200.837 129.925L205.035 101.395C205.259 99.8782 205.779 98.43 206.561 97.1469C207.343 95.8637 208.37 94.7751 209.572 93.9534C210.774 93.1317 212.125 92.5957 213.535 92.3812C214.944 92.1667 216.379 92.2785 217.745 92.7092C220.134 93.4547 222.179 95.1344 223.481 97.4202C224.784 99.706 225.25 102.434 224.788 105.07L220.396 130.549L200.837 129.925Z" fill="white"/>
<path d="M217.594 135.03C217.919 134.799 218.193 134.493 218.397 134.135C218.6 133.777 218.728 133.375 218.773 132.958C218.817 132.541 218.775 132.118 218.652 131.72C218.528 131.321 218.325 130.957 218.057 130.653L222.398 121.581L217.509 122.144L214.136 130.672C213.692 131.192 213.441 131.87 213.429 132.577C213.417 133.284 213.646 133.972 214.072 134.509C214.498 135.046 215.092 135.396 215.741 135.492C216.391 135.588 217.05 135.424 217.594 135.03Z" fill="#FFB8B8"/>
<path d="M218.524 129.053C218.284 129.016 218.059 128.901 217.881 128.724L216.22 127.067C216.041 126.888 215.917 126.653 215.865 126.395C215.814 126.136 215.837 125.867 215.931 125.623L219.251 117.132L218.78 100.354C218.848 99.815 219.013 99.2954 219.267 98.8251C219.521 98.3548 219.858 97.9432 220.26 97.6137C220.661 97.2842 221.119 97.0433 221.606 96.9047C222.094 96.7662 222.602 96.7328 223.102 96.8063C223.602 96.8799 224.083 97.059 224.518 97.3334C224.954 97.6079 225.335 97.9723 225.64 98.4057C225.945 98.8392 226.168 99.3333 226.296 99.8598C226.424 100.386 226.454 100.935 226.386 101.474L227.191 112.021C227.435 115.222 226.595 118.41 224.824 120.992L219.648 128.544C219.548 128.689 219.421 128.81 219.276 128.899C219.13 128.988 218.968 129.042 218.802 129.059C218.709 129.069 218.616 129.067 218.524 129.053Z" fill="white"/>
<path d="M178.352 79.1762C178.423 79.5892 178.576 79.9805 178.803 80.3223C179.029 80.6642 179.321 80.9485 179.66 81.155C179.999 81.3615 180.376 81.4854 180.764 81.5178C181.152 81.5502 181.542 81.4904 181.906 81.3426L187.955 89.1938L189.381 84.1159L183.418 77.4387C183.148 76.7947 182.667 76.2802 182.069 75.9927C181.47 75.7052 180.794 75.6646 180.17 75.8788C179.545 76.093 179.015 76.5469 178.68 77.1547C178.345 77.7624 178.228 78.4817 178.352 79.1762Z" fill="#FFB8B8"/>
<path d="M183.09 82.4305C183.215 82.2061 183.4 82.0281 183.621 81.9202L185.682 80.9154C185.905 80.8072 186.154 80.7756 186.395 80.8249C186.635 80.8742 186.856 81.0021 187.027 81.1912L192.978 87.8006L207.478 93.8742C207.912 94.1517 208.291 94.5188 208.593 94.9545C208.896 95.3901 209.116 95.8859 209.24 96.4133C209.365 96.9407 209.392 97.4895 209.32 98.0283C209.248 98.5671 209.079 99.0853 208.821 99.5533C208.563 100.021 208.223 100.43 207.819 100.756C207.415 101.081 206.955 101.318 206.466 101.452C205.977 101.586 205.469 101.615 204.97 101.537C204.471 101.458 203.991 101.275 203.557 100.996L194.244 97.6841C191.417 96.6794 189.025 94.6007 187.512 91.8348L183.086 83.7458C183.001 83.5902 182.947 83.4171 182.928 83.2376C182.909 83.0581 182.925 82.8764 182.976 82.7041C183.004 82.6084 183.042 82.5165 183.09 82.4305Z" fill="white"/>
<path opacity="0.1" d="M221.074 107.333L220.809 116.477L215.932 125.623L220.004 115.43L221.074 107.333Z" fill="black"/>
<path d="M215.054 84.3185C214.646 84.3758 214.232 84.2712 213.89 84.0241C213.547 83.777 213.3 83.4042 213.193 82.975C213.09 82.4809 212.864 82.0265 212.54 81.6604C212.216 81.2943 211.805 81.0303 211.353 80.8967C210.16 80.6026 208.702 81.2085 207.828 80.2332C207.641 80.0105 207.505 79.743 207.433 79.4528C207.36 79.1626 207.353 78.8579 207.411 78.5639C207.572 77.6161 208.2 76.9 208.884 76.3273C210.322 75.1278 212.063 74.4256 213.879 74.3128C214.818 74.2834 215.758 74.3339 216.69 74.4637C217.667 74.5302 218.632 74.7206 219.567 75.031C220.632 75.4647 221.578 76.1811 222.319 77.114C223.059 78.0469 223.57 79.1662 223.803 80.3685C224.017 81.5744 223.984 82.8161 223.707 84.007C223.43 85.1978 222.916 86.309 222.2 87.2631C221.342 88.4151 220.237 89.3233 218.98 89.9086C218.681 90.0611 218.337 90.0799 218.025 89.9608C217.242 89.6249 217.37 88.5782 217.727 87.88C218.109 87.1329 218.697 86.4096 218.39 85.5003C218.236 85.0787 217.94 84.7353 217.562 84.5385C216.784 84.1101 215.913 84.2115 215.076 84.3158L215.054 84.3185Z" fill="#2F2E41"/>
<path d="M176.179 88.2814H95.6922C94.534 88.28 93.4237 87.7829 92.6047 86.899C91.7857 86.0152 91.325 84.8169 91.3237 83.5669V64.9948C91.325 63.7448 91.7857 62.5465 92.6047 61.6627C93.4237 60.7788 94.534 60.2817 95.6922 60.2803H176.179C177.337 60.2817 178.447 60.7789 179.266 61.6627C180.085 62.5465 180.546 63.7448 180.547 64.9948V83.5669C180.546 84.8169 180.085 86.0152 179.266 86.899C178.447 87.7828 177.337 88.28 176.179 88.2814Z" fill="white"/>
<path d="M176.179 88.4243H95.6923C94.499 88.4229 93.355 87.9107 92.5112 87C91.6674 86.0894 91.1927 84.8548 91.1914 83.567V64.9948C91.1927 63.707 91.6674 62.4724 92.5112 61.5617C93.355 60.6511 94.499 60.1389 95.6923 60.1375H176.179C177.372 60.1389 178.516 60.6511 179.36 61.5617C180.204 62.4724 180.678 63.707 180.68 64.9948V83.567C180.678 84.8548 180.204 86.0894 179.36 87C178.516 87.9107 177.372 88.4229 176.179 88.4243ZM95.6923 60.7089C94.6394 60.7102 93.6299 61.1622 92.8854 61.9656C92.1409 62.7691 91.7221 63.8585 91.7209 64.9948V83.567C91.7221 84.7033 92.1409 85.7927 92.8854 86.5962C93.6299 87.3996 94.6394 87.8516 95.6923 87.8529H176.179C177.232 87.8516 178.241 87.3996 178.986 86.5962C179.73 85.7927 180.149 84.7033 180.15 83.567V64.9948C180.149 63.8585 179.73 62.7691 178.986 61.9656C178.241 61.1622 177.232 60.7102 176.179 60.7089H95.6923Z" fill="#3F3D56"/>
<path d="M166.382 83.7101H105.488C104.33 83.7086 103.22 83.2115 102.401 82.3277C101.582 81.4438 101.121 80.2455 101.12 78.9956V69.2809C101.121 68.031 101.582 66.8326 102.401 65.9488C103.22 65.065 104.33 64.5678 105.488 64.5664H166.382C167.541 64.5678 168.651 65.065 169.47 65.9488C170.289 66.8326 170.75 68.031 170.751 69.2809V78.9956C170.75 80.2455 170.289 81.4438 169.47 82.3277C168.651 83.2115 167.541 83.7086 166.382 83.7101Z" fill="#F2F2F2"/>
<path d="M118.592 78.4738C121.478 78.4738 123.817 75.9496 123.817 72.8358C123.817 69.722 121.478 67.1978 118.592 67.1978C115.707 67.1978 113.368 69.722 113.368 72.8358C113.368 75.9496 115.707 78.4738 118.592 78.4738Z" fill="#FF6584"/>
<path d="M162.598 83.141L155.224 76.4665L147.977 69.9073C147.786 69.7342 147.544 69.6396 147.295 69.6401C147.045 69.6406 146.804 69.7362 146.613 69.9101L139.39 76.4994L137.625 78.109L134.965 75.7011L126.88 68.3834C126.689 68.2103 126.447 68.1157 126.197 68.1162C125.948 68.1167 125.706 68.2124 125.516 68.3863L117.457 75.7375L109.272 83.2045C109.23 83.2423 109.2 83.293 109.187 83.3497C109.173 83.4063 109.175 83.4662 109.194 83.5212C109.213 83.5762 109.247 83.6237 109.291 83.6572C109.336 83.6907 109.389 83.7086 109.443 83.7085L126.225 83.6736L131.537 83.6625L131.485 83.71L147.32 83.677L162.429 83.6456C162.483 83.6455 162.536 83.6274 162.58 83.5937C162.625 83.5601 162.659 83.5124 162.677 83.4573C162.696 83.4023 162.698 83.3423 162.684 83.2858C162.67 83.2292 162.64 83.1786 162.598 83.141Z" fill="black"/>
<path d="M231.735 189H180.901C180.831 189 180.764 188.97 180.714 188.916C180.665 188.863 180.637 188.79 180.637 188.714C180.637 188.638 180.665 188.566 180.714 188.512C180.764 188.459 180.831 188.428 180.901 188.428H231.735C231.805 188.428 231.873 188.459 231.922 188.512C231.972 188.566 232 188.638 232 188.714C232 188.79 231.972 188.863 231.922 188.916C231.873 188.97 231.805 189 231.735 189Z" fill="#CCCCCC"/>
<path d="M159.929 37.6908C159.717 37.32 159.438 36.9995 159.108 36.749C158.778 36.4984 158.404 36.3231 158.009 36.2336C157.864 36.2008 157.717 36.1807 157.57 36.1736L137.398 16.7099C137.001 16.2704 136.473 15.9979 135.907 15.9413C135.795 15.9275 135.683 15.9237 135.571 15.9299C135.105 15.9527 134.656 16.1214 134.278 16.4153C133.9 16.7092 133.61 17.1156 133.442 17.5849C133.275 18.0541 133.238 18.5658 133.336 19.0574C133.433 19.549 133.662 19.9992 133.993 20.3529L141.716 27.619L154.398 39.548C154.408 39.7727 154.439 39.9957 154.49 40.2138C154.642 40.8455 154.968 41.4125 155.426 41.8396C155.883 42.2667 156.449 42.5337 157.051 42.6053C157.599 42.6744 158.154 42.5754 158.652 42.3196C159.048 42.1201 159.398 41.8306 159.68 41.471C159.709 41.4338 159.735 41.3995 159.762 41.3595C160.132 40.8389 160.346 40.2088 160.376 39.5533C160.406 38.8978 160.25 38.2481 159.929 37.6908Z" fill="#FFB8B8"/>
<path d="M125.426 56.4487L125.238 48.2026L125.079 41.3595L124.97 36.5707L124.756 27.236C124.713 26.7363 124.537 26.2606 124.248 25.8672C123.959 25.4737 123.571 25.1795 123.13 25.0205C122.689 24.8614 122.214 24.8444 121.764 24.9714C121.314 25.0985 120.909 25.3641 120.596 25.736C120.523 25.8209 120.456 25.9127 120.398 26.0103C120.072 26.5141 119.925 27.1278 119.985 27.7389L120.456 41.3595L120.692 48.2026L120.993 56.9316C120.906 57.0598 120.828 57.1944 120.758 57.3344C120.57 57.7197 120.456 58.1423 120.423 58.5765C120.391 59.0107 120.441 59.4475 120.57 59.8603C120.704 60.2931 120.922 60.6904 121.209 61.0258C121.496 61.3611 121.846 61.6271 122.235 61.8061C122.625 61.9851 123.045 62.073 123.467 62.0641C123.89 62.0553 124.307 61.9498 124.689 61.7546C125.134 61.5279 125.519 61.1866 125.812 60.7609C126.105 60.3352 126.297 59.8381 126.37 59.3136C126.442 58.7892 126.394 58.2534 126.23 57.7537C126.065 57.2541 125.789 56.8058 125.426 56.4487Z" fill="#FFB8B8"/>
<path d="M143.588 33.0906L141.716 27.6189L138.687 18.7557C138.468 18.1108 138.118 17.5273 137.662 17.0485C137.206 16.5697 136.656 16.2079 136.053 15.9898C136.005 15.9727 135.955 15.9556 135.907 15.9413C135.323 15.7498 134.707 15.6972 134.102 15.7869C133.497 15.8767 132.917 16.1067 132.402 16.4613L122.201 23.4444C121.266 24.0825 120.598 25.0875 120.338 26.2471C120.078 27.4067 120.245 28.6302 120.805 29.659C122.081 32.0396 123.471 34.3466 124.97 36.5707C126.159 38.3165 128.372 38.5022 128.756 41.3594H136.278L143.892 33.982L143.588 33.0906Z" fill="#CCCCCC"/>
<path d="M26.7843 99.9624C30.1725 99.9624 32.9192 96.9982 32.9192 93.3417C32.9192 89.6852 30.1725 86.7209 26.7843 86.7209C23.3961 86.7209 20.6494 89.6852 20.6494 93.3417C20.6494 96.9982 23.3961 99.9624 26.7843 99.9624Z" fill="#A0616A"/>
<path d="M41.8454 88.7842C41.9058 88.8361 41.9644 88.8912 42.0211 88.9493C42.303 89.2359 42.5255 89.5834 42.6742 89.9692C42.8229 90.355 42.8944 90.7704 42.884 91.1881C42.8735 91.6058 42.7814 92.0164 42.6137 92.393C42.446 92.7696 42.2064 93.1037 41.9107 93.3734C41.8418 93.4359 41.7699 93.4944 41.6953 93.5487L42.1104 108.676C42.1223 109.172 41.9858 109.658 41.7214 110.063C41.4569 110.468 41.0785 110.77 40.6424 110.924L40.6171 110.93L29.2355 112.238C28.926 112.274 28.6132 112.243 28.3149 112.147C28.0166 112.051 27.7389 111.893 27.4977 111.681C27.2565 111.468 27.0566 111.207 26.9097 110.911C26.7627 110.615 26.6715 110.29 26.6414 109.956C26.6113 109.622 26.6429 109.284 26.7342 108.963C26.8256 108.642 26.975 108.344 27.1738 108.086C27.3726 107.827 27.6168 107.614 27.8924 107.458C28.168 107.302 28.4695 107.207 28.7795 107.177L36.8928 106.406L38.2959 93.3052C38.2042 93.2175 38.1182 93.123 38.0387 93.0223C37.5988 92.4604 37.3681 91.7421 37.3913 91.0069C37.4146 90.2717 37.6902 89.5721 38.1646 89.0439C38.6391 88.5157 39.2784 88.1966 39.9586 88.1487C40.6388 88.1007 41.3112 88.3272 41.8454 88.7842Z" fill="#A0616A"/>
<path d="M36.8882 185.486H39.9507L41.4074 172.739H36.8877L36.8882 185.486Z" fill="#A0616A"/>
<path d="M36.1074 184.407L42.1381 184.407C42.6428 184.407 43.1428 184.514 43.6091 184.722C44.0754 184.931 44.499 185.236 44.8559 185.621C45.2128 186.007 45.4959 186.464 45.689 186.967C45.8822 187.47 45.9816 188.01 45.9816 188.554V188.689L36.1076 188.689L36.1074 184.407Z" fill="#2F2E41"/>
<path d="M6.45117 180.917L9.08234 182.607L16.3772 172.459L12.4937 169.964L6.45117 180.917Z" fill="#A0616A"/>
<path d="M6.29129 179.558L11.473 182.888C11.9067 183.167 12.2854 183.535 12.5873 183.971C12.8891 184.408 13.1083 184.904 13.2324 185.432C13.3564 185.96 13.3829 186.509 13.3103 187.048C13.2377 187.587 13.0674 188.106 12.8092 188.574L12.7453 188.689L4.26123 183.238L6.29129 179.558Z" fill="#2F2E41"/>
<path d="M40.6733 180.984H37.2443C36.9666 180.984 36.6986 180.873 36.4922 180.673C36.2858 180.473 36.1555 180.197 36.1266 179.899L32.6696 144.83C32.6609 144.741 32.6255 144.659 32.5689 144.594C32.5123 144.53 32.4376 144.487 32.3564 144.473C32.2752 144.459 32.1919 144.474 32.1195 144.516C32.047 144.558 31.9894 144.625 31.9555 144.706L25.719 159.609L14.6777 179.039C14.5348 179.288 14.3135 179.473 14.0544 179.561C13.7953 179.648 13.5157 179.632 13.2668 179.515L8.85586 177.421C8.71001 177.351 8.57949 177.249 8.47292 177.121C8.36636 176.994 8.2862 176.843 8.23777 176.679C8.18933 176.515 8.17372 176.342 8.19197 176.171C8.21021 176 8.2619 175.836 8.34361 175.688L18.4937 157.347L21.6066 141.893C20.6275 135.191 24.8247 125.228 24.8673 125.128L24.8881 125.079L36.4494 120.202L36.5074 120.279C41.0668 136.426 43.8452 153.804 41.7937 179.872C41.7684 180.175 41.6397 180.456 41.4325 180.662C41.2254 180.867 40.9547 180.982 40.6733 180.984Z" fill="#2F2E41"/>
<path d="M24.4221 126.712L24.3683 126.59C24.3425 126.531 21.7718 120.68 19.7901 114.426C19.4092 113.217 19.2652 111.935 19.3673 110.663C19.4693 109.39 19.8151 108.154 20.3828 107.033C20.9578 105.901 21.7445 104.91 22.6931 104.123C23.6416 103.335 24.7313 102.769 25.8931 102.461C27.91 101.939 30.0335 102.216 31.8766 103.243C33.7198 104.269 35.1599 105.976 35.9347 108.052C37.5067 112.294 37.0057 116.822 36.5342 120.383L36.5248 120.455L36.4647 120.486L24.4221 126.712Z" fill="#3F3D56"/>
<path d="M34.2224 89.6017H24.481V85.0191C26.6191 84.1024 28.7114 83.3228 29.9761 85.0191C31.1023 85.0191 32.1824 85.5019 32.9787 86.3613C33.775 87.2207 34.2224 88.3863 34.2224 89.6017Z" fill="#2F2E41"/>
<path d="M23.942 84.2104C18.1183 84.2104 16.4883 92.0883 16.4883 96.5325C16.4883 99.0111 17.5269 99.8975 19.159 100.197L19.7354 96.8799L21.0854 100.34C21.5439 100.343 22.0255 100.333 22.5249 100.323L22.9826 99.306L24.0033 100.305C28.0914 100.311 31.3955 100.955 31.3955 96.5325C31.3955 92.0883 29.966 84.2104 23.942 84.2104Z" fill="#2F2E41"/>
<path d="M51.0983 189H0.264758C0.19454 189 0.127197 188.97 0.0775456 188.916C0.0278939 188.863 0 188.79 0 188.714C0 188.638 0.0278939 188.566 0.0775456 188.512C0.127197 188.459 0.19454 188.428 0.264758 188.428H51.0983C51.1685 188.428 51.2359 188.459 51.2855 188.512C51.3352 188.566 51.3631 188.638 51.3631 188.714C51.3631 188.79 51.3352 188.863 51.2855 188.916C51.2359 188.97 51.1685 189 51.0983 189Z" fill="#CCCCCC"/>
<path d="M52.0541 94.996H40.6695C40.0027 94.9952 39.3634 94.709 38.8918 94.2001C38.4203 93.6912 38.1551 93.0013 38.1543 92.2816V79.9954C38.1551 79.2758 38.4203 78.5858 38.8918 78.0769C39.3634 77.5681 40.0027 77.2818 40.6695 77.281H52.0541C52.7209 77.2818 53.3602 77.5681 53.8318 78.0769C54.3033 78.5858 54.5685 79.2758 54.5693 79.9954V92.2816C54.5685 93.0013 54.3033 93.6912 53.8318 94.2001C53.3602 94.709 52.7209 94.9952 52.0541 94.996Z" fill="white"/>
<path d="M52.0541 94.996H40.6695C40.0027 94.9952 39.3634 94.709 38.8918 94.2001C38.4203 93.6912 38.1551 93.0013 38.1543 92.2816V79.9954C38.1551 79.2758 38.4203 78.5858 38.8918 78.0769C39.3634 77.5681 40.0027 77.2818 40.6695 77.281H52.0541C52.7209 77.2818 53.3602 77.5681 53.8318 78.0769C54.3033 78.5858 54.5685 79.2758 54.5693 79.9954V92.2816C54.5685 93.0013 54.3033 93.6912 53.8318 94.2001C53.3602 94.709 52.7209 94.9952 52.0541 94.996ZM40.6695 77.8525C40.143 77.8531 39.6383 78.0791 39.2661 78.4808C38.8938 78.8826 38.6844 79.4273 38.6838 79.9954V92.2816C38.6844 92.8498 38.8938 93.3945 39.2661 93.7962C39.6383 94.198 40.143 94.4239 40.6695 94.4246H52.0541C52.5806 94.4239 53.0853 94.198 53.4575 93.7962C53.8298 93.3945 54.0392 92.8498 54.0398 92.2816V79.9954C54.0392 79.4273 53.8298 78.8826 53.4575 78.4808C53.0853 78.0791 52.5806 77.8531 52.0541 77.8525H40.6695Z" fill="#3F3D56"/>
<path d="M50.0683 89.9959H42.6551C42.4445 89.9956 42.2426 89.9052 42.0937 89.7445C41.9448 89.5838 41.8611 89.3659 41.8608 89.1387V83.1384C41.8611 82.9112 41.9448 82.6933 42.0937 82.5326C42.2426 82.3719 42.4445 82.2815 42.6551 82.2813H44.742C44.8778 82.2807 45.0113 82.318 45.1298 82.3894C45.2483 82.4608 45.3478 82.564 45.4185 82.6891L46.0005 83.7099H50.0683C50.2789 83.7101 50.4808 83.8005 50.6297 83.9612C50.7786 84.1219 50.8624 84.3398 50.8626 84.5671V89.1387C50.8624 89.3659 50.7786 89.5838 50.6297 89.7445C50.4808 89.9052 50.2789 89.9956 50.0683 89.9959Z" fill="black"/>
<path d="M49.8275 93.0272C49.8645 93.1004 49.8987 93.1756 49.9301 93.253C50.0868 93.6351 50.167 94.0486 50.1653 94.4664C50.1636 94.8843 50.0801 95.297 49.9203 95.6776C49.7605 96.0582 49.528 96.3981 49.238 96.6749C48.948 96.9518 48.6071 97.1594 48.2376 97.2842C48.1516 97.3129 48.0643 97.3366 47.976 97.3555L42.9192 111.472C42.7521 111.933 42.4515 112.324 42.0622 112.586C41.6729 112.849 41.2155 112.969 40.758 112.929L40.7326 112.923L29.7725 109.363C29.4745 109.266 29.1972 109.106 28.9567 108.893C28.7162 108.68 28.5171 108.418 28.3711 108.121C28.2251 107.824 28.135 107.5 28.106 107.165C28.0769 106.831 28.1096 106.494 28.202 106.173C28.2945 105.852 28.4449 105.554 28.6445 105.297C28.8442 105.039 29.0892 104.827 29.3653 104.672C29.6414 104.517 29.9433 104.423 30.2534 104.395C30.5635 104.366 30.8757 104.405 31.172 104.507L38.9268 107.194L44.9306 95.7075C44.8775 95.5883 44.8323 95.4652 44.7952 95.3391C44.5919 94.637 44.6375 93.8784 44.9233 93.2106C45.2091 92.5428 45.7147 92.0134 46.3418 91.7253C46.969 91.4371 47.673 91.4108 48.3171 91.6514C48.9612 91.892 49.4995 92.3823 49.8275 93.0272Z" fill="#A0616A"/>
</g>
<defs>
<clipPath id="clip0_189_591">
<rect width="232" height="189" fill="white"/>
</clipPath>
</defs>
</svg>
